<?xml version="1.0" encoding="utf-8"?><!-- Uploaded to: SVG Repo, www.svgrepo.com, Generator: SVG Repo Mixer Tools -->
<svg fill="#000000" width="800px" height="800px" viewBox="-1 0 19 19" xmlns="http://www.w3.org/2000/svg" class="cf-icon-svg"><path d="M16.417 9.583A7.917 7.917 0 1 1 8.5 1.666a7.917 7.917 0 0 1 7.917 7.917zm-2.967-3.47a.792.792 0 0 0-.792-.792H4.342a.792.792 0 1 0 0 1.583h8.316a.792.792 0 0 0 .792-.791zm0 3.487a.792.792 0 0 0-.792-.791H4.342a.792.792 0 1 0 0 1.583h8.316a.792.792 0 0 0 .792-.792zm0 3.487a.792.792 0 0 0-.792-.791H4.342a.792.792 0 1 0 0 1.583h8.316a.792.792 0 0 0 .792-.792z"/></svg>