<svg class="animated" id="freepik_stories-to-the-stars" xmlns="http://www.w3.org/2000/svg" viewBox="0 0 500 500" version="1.1" xmlns:xlink="http://www.w3.org/1999/xlink" xmlns:svgjs="http://svgjs.com/svgjs"><style>svg#freepik_stories-to-the-stars:not(.animated) .animable {opacity: 0;}svg#freepik_stories-to-the-stars.animated #freepik--Rocket--inject-590 {animation: 1s 1 forwards cubic-bezier(.36,-0.01,.5,1.38) slideUp;animation-delay: 0s;}            @keyframes slideUp {                0% {                    opacity: 0;                    transform: translateY(30px);                }                100% {                    opacity: 1;                    transform: inherit;                }            }        </style><g id="freepik--background-complete--inject-590" class="animable" style="transform-origin: 250px 252.372px;"><path d="M121.61,310.45l-70.75-.11s3.52-4.57,7.4-5.14c0,0,7.58-22.44,20.21-22.58,11.74-.13,16.42,13.83,16.42,13.83s5.45-6.25,10.64-3.38,8.12,11.07,8.12,11.07S119.49,307.3,121.61,310.45Z" style="fill: rgb(235, 235, 235); transform-origin: 86.235px 296.535px;" id="elp54wcdcw45h" class="animable"></path><path d="M281.31,351l89.47.14s0-5.72-12.31-6.85c0,0-11.22-25-28.4-21.68-10.71,2.08-16.2,16.76-16.2,16.76s-8.07-11.57-14.54-9.35S289,344.5,289,344.5,282.33,347.72,281.31,351Z" style="fill: rgb(235, 235, 235); transform-origin: 326.045px 336.723px;" id="el58hcdhi0qd7" class="animable"></path><path d="M103.51,155.53l89.47.14s0-5.72-12.31-6.86c0,0-11.22-25-28.41-21.67-10.7,2.07-16.19,16.76-16.19,16.76s-8.07-11.58-14.54-9.35-10.33,14.53-10.33,14.53S104.53,152.3,103.51,155.53Z" style="fill: rgb(235, 235, 235); transform-origin: 148.245px 141.252px;" id="eldpxysxnttwv" class="animable"></path><path d="M388.31,377.82l60.83.09s-5.73-5.35-8.28-5.36-10-17.95-19.49-17.2-14.59,14.1-14.59,14.1S395.22,365.8,388.31,377.82Z" style="fill: rgb(235, 235, 235); transform-origin: 418.725px 366.619px;" id="elqrnf6w7d6z" class="animable"></path><path d="M153.27,239.18l60.84.1s-5.74-5.36-8.29-5.36-10-18-19.49-17.21-14.58,14.1-14.58,14.1S160.18,227.17,153.27,239.18Z" style="fill: rgb(235, 235, 235); transform-origin: 183.69px 227.982px;" id="elqkpnbxaqzs" class="animable"></path><path d="M383.39,257.78l52,.08s-2.59-3.37-5.44-3.79c0,0-5.52-16.53-14.8-16.66-8.64-.12-12.11,10.14-12.11,10.14s-4-4.61-7.82-2.51-6,8.12-6,8.12S385,255.47,383.39,257.78Z" style="fill: rgb(235, 235, 235); transform-origin: 409.39px 247.634px;" id="elhyy7d2we42q" class="animable"></path><path d="M119.47,349.24l52,.08s-2.58-3.38-5.44-3.8c0,0-5.52-16.52-14.8-16.65-8.64-.13-12.11,10.13-12.11,10.13s-4-4.61-7.82-2.51-6,8.12-6,8.12S121,346.92,119.47,349.24Z" style="fill: rgb(235, 235, 235); transform-origin: 145.47px 339.094px;" id="el6pjf1si2y6" class="animable"></path><path d="M268.38,160.74l52,.08s-2.58-3.37-5.43-3.79c0,0-5.52-16.52-14.81-16.66-8.63-.12-12.11,10.14-12.11,10.14s-4-4.61-7.81-2.51-6,8.12-6,8.12S269.94,158.43,268.38,160.74Z" style="fill: rgb(235, 235, 235); transform-origin: 294.38px 150.594px;" id="el9mdzxwxxyv" class="animable"></path></g><g id="freepik--Floor--inject-590" class="animable" style="transform-origin: 250px 458.905px;"><polygon points="41.36 458.9 93.52 458.66 145.68 458.57 250 458.41 354.32 458.57 406.48 458.66 458.64 458.9 406.48 459.15 354.32 459.24 250 459.4 145.68 459.24 93.52 459.15 41.36 458.9" style="fill: rgb(38, 50, 56); transform-origin: 250px 458.905px;" id="elw6q6nmx1zxl" class="animable"></polygon></g><g id="freepik--Smoke--inject-590" class="animable" style="transform-origin: 249.999px 359.215px;"><g id="elk8gng91m7qs"><g style="opacity: 0.6; transform-origin: 265.61px 420.745px;" class="animable"><g id="el8xf2oy0cuk"><path d="M231.45,408.39a4.2,4.2,0,1,1-4.2-4.2A4.2,4.2,0,0,1,231.45,408.39Z" style="fill: rgb(0, 0, 0); opacity: 0.6; transform-origin: 227.25px 408.39px;" class="animable"></path></g><g id="elfmzobbsfkrs"><path d="M204.81,427.08a2.05,2.05,0,1,1-2.05-2.05A2,2,0,0,1,204.81,427.08Z" style="fill: rgb(0, 0, 0); opacity: 0.6; transform-origin: 202.76px 427.08px;" class="animable"></path></g><g id="el7b462xx07c7"><path d="M330.51,435.35a2,2,0,1,1-2-2.05A2,2,0,0,1,330.51,435.35Z" style="fill: rgb(0, 0, 0); opacity: 0.6; transform-origin: 328.511px 435.3px;" class="animable"></path></g></g></g><g id="ell3vf33icrei"><path d="M160.46,456.12a2.78,2.78,0,0,0,2.77,2.78H336.77a2.79,2.79,0,0,0,0-5.57,2.86,2.86,0,0,0-.67.08,5.48,5.48,0,0,0-9.41-3.83l-.05,0c0-.34.05-.68.05-1a10.36,10.36,0,0,0-10.37-10.36,10.24,10.24,0,0,0-4.55,1.05A7.4,7.4,0,0,0,297.49,437a10.32,10.32,0,0,0-8.76-4.84,10.72,10.72,0,0,0-2,.19,13.79,13.79,0,0,0,.21-2.42,14,14,0,0,0-23.18-10.61,1.38,1.38,0,0,0-.17-.29,13.62,13.62,0,0,0-27.22,0,1.38,1.38,0,0,0-.17.29A14,14,0,0,0,213,429.91a13.79,13.79,0,0,0,.21,2.42,10.72,10.72,0,0,0-2-.19,10.32,10.32,0,0,0-8.76,4.84,7.4,7.4,0,0,0-14.28,2.25,10.37,10.37,0,0,0-14.92,9.31c0,.34,0,.68.05,1l-.05,0a5.48,5.48,0,0,0-9.41,3.83,2.86,2.86,0,0,0-.67-.08A2.79,2.79,0,0,0,160.46,456.12Z" style="fill: rgb(0, 0, 0); opacity: 0.6; transform-origin: 249.926px 432.416px;" class="animable"></path></g><g id="eliuo9gqr3k5"><g style="opacity: 0.6; transform-origin: 351.02px 422.755px;" class="animable"><g id="elppdol1rtv9e"><path d="M436.84,432.6a5.93,5.93,0,1,0,5.93-5.93A5.93,5.93,0,0,0,436.84,432.6Z" style="fill: rgb(0, 0, 0); opacity: 0.6; transform-origin: 442.77px 432.6px;" class="animable"></path></g><g id="elzu9b62lglrj"><path d="M427.4,422.78a2.89,2.89,0,1,0,2.89-2.89A2.89,2.89,0,0,0,427.4,422.78Z" style="fill: rgb(0, 0, 0); opacity: 0.6; transform-origin: 430.29px 422.78px;" class="animable"></path></g><g id="el0cfo8gvmprq"><path d="M253.34,409.87a2.89,2.89,0,1,0,2.89-2.89A2.89,2.89,0,0,0,253.34,409.87Z" style="fill: rgb(0, 0, 0); opacity: 0.6; transform-origin: 256.23px 409.87px;" class="animable"></path></g></g></g><g id="eltnxauoxnaz"><path d="M454.72,455a3.93,3.93,0,0,1-3.92,3.93H206a3.93,3.93,0,1,1,.93-7.74,7.74,7.74,0,0,1,13.28-5.41l.07,0c0-.48-.07-1-.07-1.44a14.62,14.62,0,0,1,21-13.13A10.43,10.43,0,0,1,261.4,428a14.58,14.58,0,0,1,12.37-6.83,15.16,15.16,0,0,1,2.79.26,19.14,19.14,0,0,1-.3-3.41A19.77,19.77,0,0,1,309,403a2.1,2.1,0,0,1,.24-.41,19.22,19.22,0,0,1,38.4,0,2.1,2.1,0,0,1,.24.41,19.77,19.77,0,0,1,32.7,15,19.14,19.14,0,0,1-.3,3.41,15.16,15.16,0,0,1,2.79-.26A14.57,14.57,0,0,1,395.4,428a10.43,10.43,0,0,1,20.14,3.17,14.62,14.62,0,0,1,21,13.13c0,.49,0,1-.07,1.44l.07,0a7.74,7.74,0,0,1,13.28,5.41,3.89,3.89,0,0,1,4.85,3.81Z" style="fill: rgb(0, 0, 0); opacity: 0.6; transform-origin: 328.378px 421.588px;" class="animable"></path></g><g id="elf62by0eipir"><g style="opacity: 0.6; transform-origin: 193.62px 405.14px;" class="animable"><g id="elhhvlnx36lee"><path d="M145.43,387.65a5.93,5.93,0,1,1-5.93-5.93A5.93,5.93,0,0,1,145.43,387.65Z" style="fill: rgb(0, 0, 0); opacity: 0.6; transform-origin: 139.5px 387.65px;" class="animable"></path></g><g id="elcb2l9wbsjj"><path d="M107.84,414a2.89,2.89,0,1,1-2.89-2.89A2.89,2.89,0,0,1,107.84,414Z" style="fill: rgb(0, 0, 0); opacity: 0.6; transform-origin: 104.95px 414px;" class="animable"></path></g><g id="elgql3pl4hkkw"><path d="M285.18,425.67a2.89,2.89,0,1,1-2.89-2.89A2.89,2.89,0,0,1,285.18,425.67Z" style="fill: rgb(0, 0, 0); opacity: 0.6; transform-origin: 282.29px 425.67px;" class="animable"></path></g></g></g><g id="el1t3ueiflqol"><path d="M45.28,455a3.93,3.93,0,0,0,3.92,3.93H294a3.93,3.93,0,1,0-.93-7.74,7.74,7.74,0,0,0-13.28-5.41l-.07,0c0-.48.07-1,.07-1.44a14.62,14.62,0,0,0-21.05-13.13A10.43,10.43,0,0,0,238.6,428a14.58,14.58,0,0,0-12.37-6.83,15.16,15.16,0,0,0-2.79.26,19.14,19.14,0,0,0,.3-3.41A19.77,19.77,0,0,0,191,403a2.1,2.1,0,0,0-.24-.41,19.22,19.22,0,0,0-38.4,0,2.1,2.1,0,0,0-.24.41,19.77,19.77,0,0,0-32.7,15,19.14,19.14,0,0,0,.3,3.41,15.16,15.16,0,0,0-2.79-.26A14.57,14.57,0,0,0,104.6,428a10.43,10.43,0,0,0-20.14,3.17,14.62,14.62,0,0,0-21,13.13c0,.49,0,1,.07,1.44l-.07,0a7.74,7.74,0,0,0-13.28,5.41A3.89,3.89,0,0,0,45.28,455Z" style="fill: rgb(0, 0, 0); opacity: 0.6; transform-origin: 171.621px 421.588px;" class="animable"></path></g><g id="elxn674cwen3"><path d="M392.74,458.9H107.26c93.89,0,129.18-66.84,132.27-111,2.76-39.39,2.1-88.4,2.1-88.4h16.73s-.65,49,2.1,88.4C263.56,392.06,298.84,458.9,392.74,458.9Z" style="fill: rgb(0, 0, 0); opacity: 0.6; transform-origin: 250px 359.2px;" class="animable"></path></g><g id="elf926hmihmo"><path d="M379.74,458.9H120.26c93.89,0,122.18-66.84,125.27-111,2.76-39.39,2.1-88.4,2.1-88.4h4.73s-.65,49,2.1,88.4C257.56,392.06,285.84,458.9,379.74,458.9Z" style="fill: rgb(0, 0, 0); opacity: 0.6; transform-origin: 250px 359.2px;" class="animable"></path></g><polygon points="258.42 380.2 261.5 380.77 262.19 384.02 262.87 380.77 265.95 380.2 262.89 379.45 262.19 376.39 261.48 379.45 258.42 380.2" style="fill: rgb(255, 255, 255); transform-origin: 262.185px 380.205px;" id="elsoywzeezni" class="animable"></polygon><polygon points="70.92 446.57 74 447.14 74.69 450.38 75.38 447.14 78.46 446.57 75.39 445.82 74.69 442.75 73.99 445.82 70.92 446.57" style="fill: rgb(255, 255, 255); transform-origin: 74.69px 446.565px;" id="elh7lmghxk7t" class="animable"></polygon><polygon points="371.12 419.66 374.2 420.23 374.89 423.47 375.58 420.23 378.66 419.65 375.59 418.91 374.89 415.84 374.19 418.91 371.12 419.66" style="fill: rgb(255, 255, 255); transform-origin: 374.89px 419.655px;" id="elbxs1spfngdh" class="animable"></polygon><polygon points="341.79 436.23 343.51 436.55 343.89 438.37 344.28 436.55 346 436.23 344.29 435.81 343.89 434.1 343.5 435.81 341.79 436.23" style="fill: rgb(255, 255, 255); transform-origin: 343.895px 436.235px;" id="eltpu7m201az" class="animable"></polygon><polygon points="264.65 417.11 266.37 417.43 266.76 419.24 267.14 417.43 268.86 417.11 267.15 416.69 266.76 414.98 266.36 416.69 264.65 417.11" style="fill: rgb(255, 255, 255); transform-origin: 266.755px 417.11px;" id="elm2ej0umjfbi" class="animable"></polygon><polygon points="334.1 450.76 335.82 451.08 336.21 452.89 336.59 451.08 338.31 450.76 336.6 450.34 336.21 448.63 335.82 450.34 334.1 450.76" style="fill: rgb(255, 255, 255); transform-origin: 336.205px 450.76px;" id="el4io6gvs5e7u" class="animable"></polygon><polygon points="290.6 446.5 292.32 446.81 292.7 448.63 293.09 446.81 294.81 446.49 293.1 446.08 292.7 444.36 292.31 446.08 290.6 446.5" style="fill: rgb(255, 255, 255); transform-origin: 292.705px 446.495px;" id="eljn29ks41b7o" class="animable"></polygon><polygon points="98.47 448.63 100.19 448.95 100.58 450.76 100.96 448.95 102.68 448.63 100.97 448.21 100.58 446.5 100.18 448.21 98.47 448.63" style="fill: rgb(255, 255, 255); transform-origin: 100.575px 448.63px;" id="elu1ul2h9metq" class="animable"></polygon><polygon points="296.46 406.32 298.18 406.64 298.57 408.46 298.95 406.64 300.67 406.32 298.96 405.9 298.57 404.19 298.17 405.9 296.46 406.32" style="fill: rgb(255, 255, 255); transform-origin: 298.565px 406.325px;" id="ellv9gbgq5l8" class="animable"></polygon><polygon points="354 406.32 355.72 406.64 356.1 408.46 356.49 406.64 358.21 406.32 356.49 405.9 356.1 404.19 355.71 405.9 354 406.32" style="fill: rgb(255, 255, 255); transform-origin: 356.105px 406.325px;" id="elxnghjr3ze0a" class="animable"></polygon><path d="M245.09,445.57a.5.5,0,0,1,0,1A.5.5,0,0,1,245.09,445.57Z" style="fill: rgb(255, 255, 255); transform-origin: 245.09px 446.07px;" id="el74oogjnbci7" class="animable"></path><path d="M309.86,392.78a.5.5,0,0,1,0,1A.5.5,0,0,1,309.86,392.78Z" style="fill: rgb(255, 255, 255); transform-origin: 309.86px 393.28px;" id="elvdcvtejf7sb" class="animable"></path><path d="M352.44,448a.5.5,0,0,1,0,1A.5.5,0,0,1,352.44,448Z" style="fill: rgb(255, 255, 255); transform-origin: 352.44px 448.5px;" id="eln9jmx5gf7yt" class="animable"></path><path d="M320.81,441.15a.5.5,0,0,1,0,1A.5.5,0,0,1,320.81,441.15Z" style="fill: rgb(255, 255, 255); transform-origin: 320.81px 441.65px;" id="el1kewclv9r9x" class="animable"></path><path d="M257.59,436.6a.35.35,0,0,1,0,.7A.35.35,0,0,1,257.59,436.6Z" style="fill: rgb(255, 255, 255); transform-origin: 257.59px 436.95px;" id="el3m96qovw239" class="animable"></path><path d="M260.82,351.48a.35.35,0,0,1,0,.7A.35.35,0,0,1,260.82,351.48Z" style="fill: rgb(255, 255, 255); transform-origin: 260.82px 351.83px;" id="elx8tx8osbxyg" class="animable"></path><path d="M301.21,431.3a.36.36,0,0,1,0,.71A.36.36,0,0,1,301.21,431.3Z" style="fill: rgb(255, 255, 255); transform-origin: 301.21px 431.655px;" id="ell5wgdcrcmj8" class="animable"></path><path d="M333.14,424.4a.36.36,0,0,1,0,.71A.36.36,0,0,1,333.14,424.4Z" style="fill: rgb(255, 255, 255); transform-origin: 333.14px 424.755px;" id="el1guwyb1etkr" class="animable"></path><path d="M278.51,425.85a1,1,0,0,1,0,1.91A1,1,0,0,1,278.51,425.85Z" style="fill: rgb(255, 255, 255); transform-origin: 278.51px 426.805px;" id="elo8kfalc2cc" class="animable"></path><path d="M328.62,421.16a1,1,0,0,1,0,1.91A1,1,0,0,1,328.62,421.16Z" style="fill: rgb(255, 255, 255); transform-origin: 328.62px 422.115px;" id="elm9zax6p7wf" class="animable"></path><polygon points="240.43 289.19 243.51 289.76 244.2 293.01 244.89 289.76 247.97 289.19 244.9 288.44 244.2 285.38 243.5 288.44 240.43 289.19" style="fill: rgb(255, 255, 255); transform-origin: 244.2px 289.195px;" id="el60pfl2ukt9i" class="animable"></polygon><polygon points="216.35 437.45 218.08 437.77 218.46 439.59 218.84 437.77 220.57 437.45 218.85 437.04 218.46 435.32 218.07 437.04 216.35 437.45" style="fill: rgb(255, 255, 255); transform-origin: 218.46px 437.455px;" id="elok6mgghvrq" class="animable"></polygon><polygon points="249.79 280.44 251.51 280.76 251.9 282.57 252.28 280.76 254 280.44 252.29 280.02 251.9 278.31 251.5 280.02 249.79 280.44" style="fill: rgb(255, 255, 255); transform-origin: 251.895px 280.44px;" id="el22v2xry0qcmh" class="animable"></polygon><path d="M153.84,409.52a.5.5,0,0,1,0,1A.5.5,0,0,1,153.84,409.52Z" style="fill: rgb(255, 255, 255); transform-origin: 153.84px 410.02px;" id="elztrgcu5nrkl" class="animable"></path><path d="M227,449.23a.5.5,0,0,1,0,1A.5.5,0,0,1,227,449.23Z" style="fill: rgb(255, 255, 255); transform-origin: 227px 449.73px;" id="el4k91nj3yg5f" class="animable"></path><path d="M195.38,442.37a.5.5,0,0,1,0,1A.5.5,0,0,1,195.38,442.37Z" style="fill: rgb(255, 255, 255); transform-origin: 195.38px 442.87px;" id="elo3utv1mwgqa" class="animable"></path><path d="M175.78,432.53a.35.35,0,0,1,0,.7A.35.35,0,0,1,175.78,432.53Z" style="fill: rgb(255, 255, 255); transform-origin: 175.78px 432.88px;" id="eljb72znv2ddc" class="animable"></path><path d="M207.71,425.63a.35.35,0,0,1,0,.7A.35.35,0,0,1,207.71,425.63Z" style="fill: rgb(255, 255, 255); transform-origin: 207.71px 425.98px;" id="ely2fegtkz7xo" class="animable"></path><path d="M231.24,363.79a.35.35,0,0,1,0,.7A.35.35,0,0,1,231.24,363.79Z" style="fill: rgb(255, 255, 255); transform-origin: 231.24px 364.14px;" id="el1rx04epj4jc" class="animable"></path><path d="M203.19,422.38a1,1,0,0,1,0,1.92A1,1,0,0,1,203.19,422.38Z" style="fill: rgb(255, 255, 255); transform-origin: 203.19px 423.34px;" id="el0sdh9srf8bci" class="animable"></path><path d="M257.25,302.12a1,1,0,0,1,0,1.91A1,1,0,0,1,257.25,302.12Z" style="fill: rgb(255, 255, 255); transform-origin: 257.25px 303.075px;" id="elqvqxbrn035a" class="animable"></path><path d="M139.57,444.61a1,1,0,0,1,0,1.92A1,1,0,0,1,139.57,444.61Z" style="fill: rgb(255, 255, 255); transform-origin: 139.57px 445.57px;" id="elxq8qrczd6nh" class="animable"></path><polygon points="210.47 409.65 212.2 409.97 212.58 411.78 212.97 409.97 214.69 409.65 212.97 409.23 212.58 407.52 212.19 409.23 210.47 409.65" style="fill: rgb(255, 255, 255); transform-origin: 212.58px 409.65px;" id="ellmobrphwr4g" class="animable"></polygon><polygon points="407.38 446.57 409.1 446.89 409.49 448.7 409.87 446.89 411.59 446.57 409.88 446.15 409.49 444.43 409.1 446.15 407.38 446.57" style="fill: rgb(255, 255, 255); transform-origin: 409.485px 446.565px;" id="elkfrwa7qfkvb" class="animable"></polygon><path d="M221.12,421.42a.5.5,0,0,1,0,1A.5.5,0,0,1,221.12,421.42Z" style="fill: rgb(255, 255, 255); transform-origin: 221.12px 421.92px;" id="el1njlu9jiv04" class="animable"></path><path d="M236.27,394.5a.5.5,0,0,1,0,1A.5.5,0,0,1,236.27,394.5Z" style="fill: rgb(255, 255, 255); transform-origin: 236.27px 395px;" id="elx62o3mdbwri" class="animable"></path><polygon points="243.76 327.77 245.48 328.09 245.87 329.9 246.25 328.09 247.97 327.77 246.26 327.35 245.87 325.64 245.48 327.35 243.76 327.77" style="fill: rgb(255, 255, 255); transform-origin: 245.865px 327.77px;" id="elqrvy7rd65pi" class="animable"></polygon><path d="M292.35,403.69a.5.5,0,0,1,0,1A.5.5,0,0,1,292.35,403.69Z" style="fill: rgb(255, 255, 255); transform-origin: 292.35px 404.19px;" id="ely82128l1q3" class="animable"></path><path d="M270.65,395.21a.35.35,0,0,1,0,.7A.35.35,0,0,1,270.65,395.21Z" style="fill: rgb(255, 255, 255); transform-origin: 270.65px 395.56px;" id="el8jx66ppnkyq" class="animable"></path><polygon points="153.49 421.42 155.21 421.74 155.6 423.56 155.98 421.74 157.7 421.42 155.99 421 155.6 419.29 155.21 421 153.49 421.42" style="fill: rgb(255, 255, 255); transform-origin: 155.595px 421.425px;" id="el8yy38xzeg86" class="animable"></polygon><polygon points="424.86 452.89 426.59 453.21 426.97 455.03 427.36 453.21 429.08 452.89 427.36 452.48 426.97 450.76 426.58 452.48 424.86 452.89" style="fill: rgb(255, 255, 255); transform-origin: 426.97px 452.895px;" id="elpmgnxjl4mvr" class="animable"></polygon><path d="M128.73,421.42a.5.5,0,0,1,0,1A.5.5,0,0,1,128.73,421.42Z" style="fill: rgb(255, 255, 255); transform-origin: 128.73px 421.92px;" id="elkgazp423mmk" class="animable"></path><path d="M161.79,424.05a.36.36,0,0,1,0,.71A.36.36,0,0,1,161.79,424.05Z" style="fill: rgb(255, 255, 255); transform-origin: 161.79px 424.405px;" id="elop5sf2gdvn" class="animable"></path><path d="M210.41,399a1,1,0,0,1,0,1.92A1,1,0,0,1,210.41,399Z" style="fill: rgb(255, 255, 255); transform-origin: 210.41px 399.96px;" id="elg9nrjbey8tj" class="animable"></path><path d="M348.82,410.83a1,1,0,0,1,0,1.91A1,1,0,0,1,348.82,410.83Z" style="fill: rgb(255, 255, 255); transform-origin: 348.82px 411.785px;" id="el1p8gvdxaow3" class="animable"></path></g><g id="freepik--Moon--inject-590" class="animable" style="transform-origin: 401.665px 104.93px;"><circle cx="401.64" cy="104.93" r="19.45" style="fill: rgb(235, 235, 235); transform-origin: 401.64px 104.93px;" id="elpwt1v78anw" class="animable"></circle><path d="M408.72,93.39A4.33,4.33,0,0,1,408,96a5.15,5.15,0,0,1-2.11,1.87,3.84,3.84,0,0,1-2.86.24,4,4,0,0,1-2.18-1.67,5.73,5.73,0,0,0,2.34,1,3.17,3.17,0,0,0,1.19,0,3.73,3.73,0,0,0,1.13-.36,5.86,5.86,0,0,0,.55-.3,4.46,4.46,0,0,0,.5-.35,5.24,5.24,0,0,0,.91-.85A6.58,6.58,0,0,0,408.72,93.39Z" style="fill: rgb(199, 199, 199); transform-origin: 404.788px 95.8353px;" id="elvwuskyn2gmd" class="animable"></path><path d="M401.73,94.51a2.82,2.82,0,0,1,.4-1.86,3.5,3.5,0,0,1,1.47-1.33,2.65,2.65,0,0,1,2-.14,2.55,2.55,0,0,1,1.45,1.24,4.3,4.3,0,0,0-1.61-.6,2.67,2.67,0,0,0-1.5.26A4.62,4.62,0,0,0,401.73,94.51Z" style="fill: rgb(199, 199, 199); transform-origin: 404.378px 92.7785px;" id="elcbylre90dki" class="animable"></path><path d="M401.64,114.07a2.64,2.64,0,0,1,.05,1.86,3.27,3.27,0,0,1-1.12,1.57,2.56,2.56,0,0,1-1.92.52,2.61,2.61,0,0,1-1.63-.9,4.74,4.74,0,0,0,1.66.24,2.57,2.57,0,0,0,1.37-.53,4.08,4.08,0,0,0,1-1.16A4.74,4.74,0,0,0,401.64,114.07Z" style="fill: rgb(199, 199, 199); transform-origin: 399.428px 116.057px;" id="elcvqz9fvw1to" class="animable"></path><path d="M397.61,116.28a1.72,1.72,0,0,1-.13-1.3,2.22,2.22,0,0,1,.78-1.14,1.76,1.76,0,0,1,1.39-.35,1.65,1.65,0,0,1,1.11.72,3.79,3.79,0,0,0-1.14-.06,1.87,1.87,0,0,0-.84.36A3.35,3.35,0,0,0,397.61,116.28Z" style="fill: rgb(199, 199, 199); transform-origin: 399.084px 114.872px;" id="eltu2prwtr" class="animable"></path><path d="M394.63,96.58a1.74,1.74,0,0,1,.56,1.25,1.94,1.94,0,0,1-.55,1.37,1.72,1.72,0,0,1-1.43.49A2,2,0,0,1,392,99.1,5.72,5.72,0,0,0,393.2,99a1.43,1.43,0,0,0,.83-.42,1.93,1.93,0,0,0,.5-.84A3.66,3.66,0,0,0,394.63,96.58Z" style="fill: rgb(199, 199, 199); transform-origin: 393.595px 98.1417px;" id="ele497ikyz3l" class="animable"></path><path d="M392.22,98.47a1.15,1.15,0,0,1-.48-.87,1.34,1.34,0,0,1,.38-1,1.26,1.26,0,0,1,1.9.17,6,6,0,0,0-.82.16,1,1,0,0,0-.47.27,1.62,1.62,0,0,0-.33.49A3,3,0,0,0,392.22,98.47Z" style="fill: rgb(199, 199, 199); transform-origin: 392.879px 97.3575px;" id="elb3i7yv2y0w" class="animable"></path><path d="M408.15,117.08a1.78,1.78,0,0,1-1.08.84,1.91,1.91,0,0,1-1.47-.2,1.73,1.73,0,0,1-.82-1.26,2.09,2.09,0,0,1,.27-1.33,6.74,6.74,0,0,0,.38,1.15,1.49,1.49,0,0,0,.61.71,2,2,0,0,0,.94.27A3.71,3.71,0,0,0,408.15,117.08Z" style="fill: rgb(199, 199, 199); transform-origin: 406.456px 116.558px;" id="elaxk3ct1ah1m" class="animable"></path><path d="M405.73,115.2a1.1,1.1,0,0,1,.71-.68,1.35,1.35,0,0,1,1.09.13,1.18,1.18,0,0,1,.59.94,1.26,1.26,0,0,1-.29.94,6.27,6.27,0,0,0-.35-.76,1.09,1.09,0,0,0-.38-.39,1.44,1.44,0,0,0-.56-.2A2.81,2.81,0,0,0,405.73,115.2Z" style="fill: rgb(199, 199, 199); transform-origin: 406.928px 115.495px;" id="elqi0x2pvmreb" class="animable"></path><path d="M414.81,103.39a1.72,1.72,0,0,1-.42,1.3,1.86,1.86,0,0,1-1.32.66,1.68,1.68,0,0,1-1.39-.58,2,2,0,0,1-.52-1.25,6.45,6.45,0,0,0,.95.75,1.6,1.6,0,0,0,.91.24,2,2,0,0,0,.93-.31A3.4,3.4,0,0,0,414.81,103.39Z" style="fill: rgb(199, 199, 199); transform-origin: 412.989px 104.372px;" id="elhtkv4ksmw4" class="animable"></path><path d="M411.75,103.2a1.13,1.13,0,0,1,.21-1,1.34,1.34,0,0,1,1-.51,1.2,1.2,0,0,1,1,.45,1.25,1.25,0,0,1,.29.93,6.8,6.8,0,0,0-.72-.42,1,1,0,0,0-.54-.11,1.42,1.42,0,0,0-.57.15A2.83,2.83,0,0,0,411.75,103.2Z" style="fill: rgb(199, 199, 199); transform-origin: 412.984px 102.444px;" id="elpfjvdp8j8mr" class="animable"></path><path d="M389.05,107.8a1.73,1.73,0,0,1-.42,1.3,1.88,1.88,0,0,1-1.32.66,1.71,1.71,0,0,1-1.39-.58,2,2,0,0,1-.52-1.25,6.49,6.49,0,0,0,1,.74,1.51,1.51,0,0,0,.9.24,2,2,0,0,0,.93-.3A3.83,3.83,0,0,0,389.05,107.8Z" style="fill: rgb(199, 199, 199); transform-origin: 387.229px 108.782px;" id="el25sp9t9la07" class="animable"></path><path d="M386,107.61a1.14,1.14,0,0,1,.21-1,1.33,1.33,0,0,1,1-.5,1.18,1.18,0,0,1,1,.45,1.27,1.27,0,0,1,.29.93,7.1,7.1,0,0,0-.72-.43,1.18,1.18,0,0,0-.54-.11,1.61,1.61,0,0,0-.57.15A3.26,3.26,0,0,0,386,107.61Z" style="fill: rgb(199, 199, 199); transform-origin: 387.234px 106.859px;" id="elu1gqoznbpod" class="animable"></path><path d="M415.4,118.69a19.44,19.44,0,0,1-33-11.28,18,18,0,1,0,21.2-21.82,19.44,19.44,0,0,1,11.84,33.1Z" style="fill: rgb(219, 219, 219); transform-origin: 401.77px 104.974px;" id="eljs38qzr0jgl" class="animable"></path></g><g id="freepik--Stars--inject-590" class="animable" style="transform-origin: 250px 231.845px;"><polygon points="368.63 327.54 372.74 328.3 373.66 332.64 374.57 328.3 378.69 327.54 374.59 326.54 373.66 322.45 372.72 326.54 368.63 327.54" style="fill: rgb(166, 166, 166); transform-origin: 373.66px 327.545px;" id="elutdedkcswq8" class="animable"></polygon><polygon points="201.72 351.48 205.83 352.24 206.75 356.57 207.67 352.24 211.78 351.48 207.69 350.48 206.75 346.38 205.81 350.48 201.72 351.48" style="fill: rgb(166, 166, 166); transform-origin: 206.75px 351.475px;" id="elpzy17uadmks" class="animable"></polygon><polygon points="324.78 254.71 328.89 255.47 329.81 259.81 330.73 255.47 334.84 254.71 330.74 253.71 329.81 249.62 328.87 253.71 324.78 254.71" style="fill: rgb(166, 166, 166); transform-origin: 329.81px 254.715px;" id="elp9pobe55p5b" class="animable"></polygon><polygon points="424.42 300.15 426.71 300.57 427.23 303 427.74 300.57 430.04 300.15 427.75 299.59 427.23 297.3 426.7 299.59 424.42 300.15" style="fill: rgb(166, 166, 166); transform-origin: 427.23px 300.15px;" id="ela0gbqt9dl2g" class="animable"></polygon><polygon points="354.36 380.2 356.65 380.63 357.17 383.05 357.68 380.63 359.98 380.2 357.69 379.64 357.17 377.36 356.64 379.64 354.36 380.2" style="fill: rgb(166, 166, 166); transform-origin: 357.17px 380.205px;" id="elwu22vcm3id" class="animable"></polygon><polygon points="375.58 188.25 377.88 188.68 378.39 191.1 378.91 188.68 381.21 188.25 378.92 187.69 378.39 185.41 377.87 187.69 375.58 188.25" style="fill: rgb(166, 166, 166); transform-origin: 378.395px 188.255px;" id="el069m3iqlw74g" class="animable"></polygon><polygon points="216.35 372.8 218.65 373.22 219.17 375.64 219.68 373.22 221.98 372.8 219.69 372.24 219.17 369.95 218.64 372.24 216.35 372.8" style="fill: rgb(166, 166, 166); transform-origin: 219.165px 372.795px;" id="elizik78knz7" class="animable"></polygon><polygon points="115.75 384.57 118.05 384.99 118.56 387.41 119.08 384.99 121.38 384.57 119.09 384.01 118.56 381.72 118.04 384.01 115.75 384.57" style="fill: rgb(166, 166, 166); transform-origin: 118.565px 384.565px;" id="elj7wfdrk47cj" class="animable"></polygon><polygon points="366.71 249.62 369.01 250.04 369.53 252.47 370.04 250.04 372.34 249.62 370.05 249.06 369.53 246.77 369 249.06 366.71 249.62" style="fill: rgb(166, 166, 166); transform-origin: 369.525px 249.62px;" id="el7yklxmsoqmr" class="animable"></polygon><polygon points="315.37 110.55 317.67 110.97 318.18 113.4 318.69 110.97 320.99 110.55 318.7 109.99 318.18 107.7 317.66 109.99 315.37 110.55" style="fill: rgb(166, 166, 166); transform-origin: 318.18px 110.55px;" id="el8ao7opwyxax" class="animable"></polygon><polygon points="315.67 198.85 317.97 199.28 318.48 201.7 318.99 199.28 321.29 198.85 319 198.29 318.48 196 317.96 198.29 315.67 198.85" style="fill: rgb(166, 166, 166); transform-origin: 318.48px 198.85px;" id="el66cf1gbzulp" class="animable"></polygon><path d="M361.25,407.27a.67.67,0,0,1,0,1.33A.67.67,0,0,1,361.25,407.27Z" style="fill: rgb(166, 166, 166); transform-origin: 361.25px 407.935px;" id="elr5yphats3oc" class="animable"></path><path d="M341.91,239.72a.67.67,0,0,1,0,1.33A.67.67,0,0,1,341.91,239.72Z" style="fill: rgb(166, 166, 166); transform-origin: 341.91px 240.385px;" id="elzclz0vqjlx" class="animable"></path><path d="M170,332a.67.67,0,0,1,0,1.33A.67.67,0,0,1,170,332Z" style="fill: rgb(166, 166, 166); transform-origin: 170px 332.665px;" id="elovdjaz0cjuq" class="animable"></path><path d="M356.53,304.29a.67.67,0,0,1,0,1.33A.67.67,0,0,1,356.53,304.29Z" style="fill: rgb(166, 166, 166); transform-origin: 356.53px 304.955px;" id="elotg1rs9v11g" class="animable"></path><path d="M377.94,395.29a.47.47,0,0,1,0,.94A.47.47,0,0,1,377.94,395.29Z" style="fill: rgb(166, 166, 166); transform-origin: 377.94px 395.76px;" id="elgthvyqttbu" class="animable"></path><path d="M378.41,145.86a.48.48,0,0,1,0,.95A.48.48,0,0,1,378.41,145.86Z" style="fill: rgb(166, 166, 166); transform-origin: 378.41px 146.335px;" id="elryvszoadmu" class="animable"></path><path d="M330.36,291.15a.47.47,0,0,1,0,.94A.47.47,0,0,1,330.36,291.15Z" style="fill: rgb(166, 166, 166); transform-origin: 330.36px 291.62px;" id="el60yogo3dmb" class="animable"></path><path d="M300.06,283.86a1.28,1.28,0,0,1,0,2.55A1.28,1.28,0,0,1,300.06,283.86Z" style="fill: rgb(166, 166, 166); transform-origin: 300.06px 285.135px;" id="elt1l6skiwx4r" class="animable"></path><polygon points="88.58 111.2 92.69 111.96 93.61 116.29 94.53 111.96 98.64 111.19 94.55 110.19 93.61 106.1 92.67 110.19 88.58 111.2" style="fill: rgb(166, 166, 166); transform-origin: 93.61px 111.195px;" id="elv8tn15c0ep" class="animable"></polygon><polygon points="175.96 57.94 178.26 58.36 178.77 60.79 179.29 58.36 181.58 57.94 179.3 57.38 178.77 55.09 178.25 57.38 175.96 57.94" style="fill: rgb(166, 166, 166); transform-origin: 178.77px 57.94px;" id="elxhrtb6yzoch" class="animable"></polygon><path d="M182.51,139.92a.67.67,0,0,1,0,1.33A.67.67,0,0,1,182.51,139.92Z" style="fill: rgb(166, 166, 166); transform-origin: 182.51px 140.585px;" id="elwnzjqr888t7" class="animable"></path><path d="M110.12,374.2a.67.67,0,0,1,0,1.33A.67.67,0,0,1,110.12,374.2Z" style="fill: rgb(166, 166, 166); transform-origin: 110.12px 374.865px;" id="elm51ve7jjir" class="animable"></path><path d="M127.27,232.47a.67.67,0,0,1,0,1.33A.67.67,0,0,1,127.27,232.47Z" style="fill: rgb(166, 166, 166); transform-origin: 127.27px 233.135px;" id="el8ybc70yvnv7" class="animable"></path><path d="M153.63,321.54a.47.47,0,0,1,0,.94A.47.47,0,0,1,153.63,321.54Z" style="fill: rgb(166, 166, 166); transform-origin: 153.63px 322.01px;" id="el4jg880kx6wt" class="animable"></path><path d="M280.4,360.89a.47.47,0,0,1,0,.94A.47.47,0,0,1,280.4,360.89Z" style="fill: rgb(166, 166, 166); transform-origin: 280.4px 361.36px;" id="elgq87kqgdp98" class="animable"></path><path d="M328.88,148.4a.47.47,0,0,1,0,.94A.47.47,0,0,1,328.88,148.4Z" style="fill: rgb(166, 166, 166); transform-origin: 328.88px 148.87px;" id="elq2synxai2ei" class="animable"></path><path d="M235.67,298.14a1.28,1.28,0,0,1,0,2.55A1.28,1.28,0,0,1,235.67,298.14Z" style="fill: rgb(166, 166, 166); transform-origin: 235.67px 299.415px;" id="elida0gw6eoe" class="animable"></path><path d="M374.29,151.4a1.28,1.28,0,0,1,0,2.56A1.28,1.28,0,0,1,374.29,151.4Z" style="fill: rgb(166, 166, 166); transform-origin: 374.29px 152.68px;" id="eli6ewpz51mg" class="animable"></path><path d="M76.82,320.26a1.28,1.28,0,0,1,0,2.55A1.28,1.28,0,0,1,76.82,320.26Z" style="fill: rgb(166, 166, 166); transform-origin: 76.82px 321.535px;" id="el4en8x3ggyrw" class="animable"></path><polygon points="167.15 188.62 169.44 189.04 169.96 191.47 170.47 189.04 172.77 188.62 170.48 188.06 169.96 185.77 169.44 188.06 167.15 188.62" style="fill: rgb(166, 166, 166); transform-origin: 169.96px 188.62px;" id="el7o93xsdncyv" class="animable"></polygon><polygon points="274.78 335.49 277.08 335.91 277.59 338.33 278.1 335.91 280.4 335.49 278.11 334.93 277.59 332.64 277.07 334.93 274.78 335.49" style="fill: rgb(166, 166, 166); transform-origin: 277.59px 335.485px;" id="el76tyka7g97j" class="animable"></polygon><path d="M329.26,375a.67.67,0,0,1,0,1.33A.67.67,0,0,1,329.26,375Z" style="fill: rgb(166, 166, 166); transform-origin: 329.26px 375.665px;" id="el8xmjkq1mqxi" class="animable"></path><path d="M349.48,339.1a.67.67,0,0,1,0,1.33A.67.67,0,0,1,349.48,339.1Z" style="fill: rgb(166, 166, 166); transform-origin: 349.48px 339.765px;" id="elvjms66shpu" class="animable"></path><polygon points="401.64 367.1 403.94 367.52 404.46 369.95 404.97 367.52 407.27 367.1 404.98 366.54 404.46 364.25 403.93 366.54 401.64 367.1" style="fill: rgb(166, 166, 166); transform-origin: 404.455px 367.1px;" id="el4f07rvba9m7" class="animable"></polygon><path d="M331.71,160.67a.67.67,0,0,1,0,1.34A.67.67,0,0,1,331.71,160.67Z" style="fill: rgb(166, 166, 166); transform-origin: 331.71px 161.34px;" id="eltymmw8aiupb" class="animable"></path><path d="M378,341.2a.47.47,0,0,1,0,.94A.47.47,0,0,1,378,341.2Z" style="fill: rgb(166, 166, 166); transform-origin: 378px 341.67px;" id="el17th0433jxo" class="animable"></path><polygon points="136.69 261.43 138.99 261.85 139.5 264.27 140.01 261.85 142.31 261.42 140.02 260.87 139.5 258.58 138.98 260.87 136.69 261.43" style="fill: rgb(166, 166, 166); transform-origin: 139.5px 261.425px;" id="elupgz3siz1k" class="animable"></polygon><polygon points="69.96 206.6 72.26 207.03 72.77 209.45 73.28 207.03 75.58 206.6 73.29 206.04 72.77 203.75 72.25 206.04 69.96 206.6" style="fill: rgb(166, 166, 166); transform-origin: 72.77px 206.6px;" id="eloqwey9xhlh" class="animable"></polygon><polygon points="189.15 133.05 191.45 133.48 191.97 135.9 192.48 133.48 194.78 133.05 192.49 132.49 191.97 130.2 191.44 132.49 189.15 133.05" style="fill: rgb(166, 166, 166); transform-origin: 191.965px 133.05px;" id="el8nbnq7acs15" class="animable"></polygon><path d="M110.12,298.08a.67.67,0,0,1,0,1.33A.67.67,0,0,1,110.12,298.08Z" style="fill: rgb(166, 166, 166); transform-origin: 110.12px 298.745px;" id="eldvo8dgsilwg" class="animable"></path><path d="M181.22,268.8a.67.67,0,0,1,0,1.33A.67.67,0,0,1,181.22,268.8Z" style="fill: rgb(166, 166, 166); transform-origin: 181.22px 269.465px;" id="elhu6diikvrrs" class="animable"></path><path d="M166.74,175.66a.47.47,0,0,1,0,.94A.47.47,0,0,1,166.74,175.66Z" style="fill: rgb(166, 166, 166); transform-origin: 166.74px 176.13px;" id="el19rtxa6noul" class="animable"></path><path d="M93.61,223.88a1.28,1.28,0,0,1,0,2.55A1.28,1.28,0,0,1,93.61,223.88Z" style="fill: rgb(166, 166, 166); transform-origin: 93.61px 225.155px;" id="el11ae6zc0h1b" class="animable"></path><path d="M418.23,206.6a1.28,1.28,0,0,1,0,2.55A1.28,1.28,0,0,1,418.23,206.6Z" style="fill: rgb(166, 166, 166); transform-origin: 418.23px 207.875px;" id="eldt54rsmsp5" class="animable"></path><path d="M149.48,183.6a1.28,1.28,0,0,1,0,2.56A1.28,1.28,0,0,1,149.48,183.6Z" style="fill: rgb(166, 166, 166); transform-origin: 149.48px 184.88px;" id="elj8hv86frd7" class="animable"></path></g><g id="freepik--Rocket--inject-590" class="animable" style="transform-origin: 250px 195.295px;"><path d="M277.12,117V262.26H222.84V117c0-20.15-1.36-31.84,10.64-48.79,10.45-14.76,14.57-16.7,16.5-16.7s6,1.94,16.5,16.7C278.48,85.16,277.12,96.85,277.12,117Z" style="fill: rgb(69, 90, 100); transform-origin: 249.98px 156.885px;" id="el0p3fva32qb8" class="animable"></path><path d="M260.92,60.79H239c6.46-8,9.41-9.28,10.95-9.28S254.46,52.75,260.92,60.79Z" style="fill: rgb(38, 50, 56); transform-origin: 249.96px 56.15px;" id="eln1vloym9sqj" class="animable"></path><path d="M230.79,72.29c3.2-.09,6.4-.16,9.59-.19L250,72l9.6.06c3.19,0,6.39.1,9.59.19-3.2.09-6.4.16-9.59.19l-9.6.06-9.6-.06C237.19,72.45,234,72.38,230.79,72.29Z" style="fill: rgb(55, 71, 79); transform-origin: 249.99px 72.25px;" id="eld6ajoln7o3k" class="animable"></path><path d="M222.86,103.08q6.78-.14,13.57-.19l13.57-.06,13.57.06q6.78,0,13.57.19-6.78.14-13.57.19l-13.57.06-13.57-.06Q229.65,103.23,222.86,103.08Z" style="fill: rgb(55, 71, 79); transform-origin: 250px 103.08px;" id="el3wfv2d7ri6g" class="animable"></path><path d="M223.24,94.73q6.69-.14,13.37-.19L250,94.48l13.37.06q6.67,0,13.37.19-6.69.13-13.37.19L250,95l-13.37-.06Q229.92,94.88,223.24,94.73Z" style="fill: rgb(55, 71, 79); transform-origin: 249.99px 94.74px;" id="el6hffw2ptpzx" class="animable"></path><path d="M222.86,135.43q6.78-.13,13.57-.19l13.57-.06,13.57.06q6.78,0,13.57.19-6.78.13-13.57.19l-13.57.06-13.57-.06Q229.65,135.57,222.86,135.43Z" style="fill: rgb(55, 71, 79); transform-origin: 250px 135.43px;" id="elp3gqbqrz7g" class="animable"></path><path d="M222.86,167.78q6.78-.14,13.57-.19l13.57-.06,13.57.06q6.78,0,13.57.19-6.78.14-13.57.19L250,168,236.43,168Q229.65,167.93,222.86,167.78Z" style="fill: rgb(55, 71, 79); transform-origin: 250px 167.765px;" id="el8j7jkyyij6w" class="animable"></path><path d="M222.86,200.13q6.78-.13,13.57-.19l13.57-.06,13.57.06q6.78,0,13.57.19-6.78.13-13.57.19l-13.57.06-13.57-.06Q229.65,200.27,222.86,200.13Z" style="fill: rgb(55, 71, 79); transform-origin: 250px 200.13px;" id="elj3yi7rj7kr" class="animable"></path><path d="M222.86,232.48q6.78-.15,13.57-.2l13.57-.05,13.57.05q6.78.06,13.57.2-6.78.14-13.57.19l-13.57.06-13.57-.06Q229.65,232.61,222.86,232.48Z" style="fill: rgb(55, 71, 79); transform-origin: 250px 232.48px;" id="el2728ib65moo" class="animable"></path><path d="M232.84,74.36a.71.71,0,0,1-1.41,0,.71.71,0,1,1,1.41,0Zm0,0a.59.59,0,0,0-.64-.58.58.58,0,0,0,0,1.15A.59.59,0,0,0,232.84,74.36Z" style="fill: rgb(55, 71, 79); transform-origin: 232.135px 74.2759px;" id="elucbgqx2e4t" class="animable"></path><path d="M240,74.36a.7.7,0,1,1-.64-.71A.7.7,0,0,1,240,74.36Zm0,0a.59.59,0,0,0-.64-.58.58.58,0,0,0,0,1.15A.59.59,0,0,0,240,74.36Z" style="fill: rgb(55, 71, 79); transform-origin: 239.3px 74.3474px;" id="eltcgr9taftt" class="animable"></path><path d="M247.06,74.36a.7.7,0,0,1-.64.7.71.71,0,1,1,0-1.41A.7.7,0,0,1,247.06,74.36Zm0,0a.58.58,0,0,0-.64-.58.58.58,0,0,0,0,1.15A.58.58,0,0,0,247.06,74.36Z" style="fill: rgb(55, 71, 79); transform-origin: 246.343px 74.355px;" id="elighzf5rlfy" class="animable"></path><path d="M254.18,74.36a.71.71,0,0,1-1.41,0,.71.71,0,1,1,1.41,0Zm0,0a.59.59,0,0,0-.64-.58.58.58,0,0,0,0,1.15A.59.59,0,0,0,254.18,74.36Z" style="fill: rgb(55, 71, 79); transform-origin: 253.475px 74.2759px;" id="elmo64epn9kpj" class="animable"></path><path d="M261.29,74.36a.7.7,0,0,1-.64.7.71.71,0,1,1,0-1.41A.71.71,0,0,1,261.29,74.36Zm0,0a.59.59,0,0,0-.64-.58.58.58,0,0,0,0,1.15A.59.59,0,0,0,261.29,74.36Z" style="fill: rgb(55, 71, 79); transform-origin: 260.573px 74.355px;" id="elbwuncuow3b" class="animable"></path><path d="M268.4,74.36a.7.7,0,1,1-.64-.71A.7.7,0,0,1,268.4,74.36Zm0,0a.59.59,0,0,0-.64-.58.58.58,0,0,0,0,1.15A.59.59,0,0,0,268.4,74.36Z" style="fill: rgb(55, 71, 79); transform-origin: 267.7px 74.3474px;" id="eljr8jqbp1qug" class="animable"></path><path d="M232.84,104.91a.71.71,0,1,1-.64-.7A.71.71,0,0,1,232.84,104.91Zm0,0a.59.59,0,0,0-.64-.57.58.58,0,0,0,0,1.15A.59.59,0,0,0,232.84,104.91Z" style="fill: rgb(55, 71, 79); transform-origin: 232.13px 104.917px;" id="elg2zjnlminal" class="animable"></path><path d="M240,104.91a.7.7,0,1,1-.64-.7A.71.71,0,0,1,240,104.91Zm0,0a.59.59,0,0,0-.64-.57.58.58,0,0,0,0,1.15A.59.59,0,0,0,240,104.91Z" style="fill: rgb(55, 71, 79); transform-origin: 239.3px 104.907px;" id="el495zv2q2o52" class="animable"></path><path d="M225.73,104.91a.71.71,0,1,1-.65-.7A.71.71,0,0,1,225.73,104.91Zm0,0a.59.59,0,0,0-.65-.57.58.58,0,0,0,0,1.15A.59.59,0,0,0,225.73,104.91Z" style="fill: rgb(55, 71, 79); transform-origin: 225.02px 104.917px;" id="elc8lvhtc2hrs" class="animable"></path><path d="M247.06,104.91a.7.7,0,0,1-.64.71.71.71,0,0,1-.76-.71.7.7,0,0,1,.76-.7A.7.7,0,0,1,247.06,104.91Zm0,0a.58.58,0,0,0-.64-.57.58.58,0,0,0,0,1.15A.58.58,0,0,0,247.06,104.91Z" style="fill: rgb(55, 71, 79); transform-origin: 246.36px 104.915px;" id="el6o9em829jor" class="animable"></path><path d="M254.18,104.91a.71.71,0,1,1-.64-.7A.71.71,0,0,1,254.18,104.91Zm0,0a.59.59,0,0,0-.64-.57.58.58,0,0,0,0,1.15A.59.59,0,0,0,254.18,104.91Z" style="fill: rgb(55, 71, 79); transform-origin: 253.47px 104.917px;" id="el869j3474k04" class="animable"></path><path d="M261.29,104.91a.71.71,0,0,1-.64.71.71.71,0,1,1,0-1.41A.7.7,0,0,1,261.29,104.91Zm0,0a.59.59,0,0,0-.64-.57.58.58,0,0,0,0,1.15A.59.59,0,0,0,261.29,104.91Z" style="fill: rgb(55, 71, 79); transform-origin: 260.573px 104.915px;" id="el5zae55x3w7" class="animable"></path><path d="M268.4,104.91a.7.7,0,0,1-.64.71.71.71,0,1,1,0-1.41A.7.7,0,0,1,268.4,104.91Zm0,0a.59.59,0,0,0-.64-.57.58.58,0,0,0,0,1.15A.59.59,0,0,0,268.4,104.91Z" style="fill: rgb(55, 71, 79); transform-origin: 267.683px 104.915px;" id="elkw0tk10tha" class="animable"></path><path d="M275.52,104.91a.71.71,0,1,1-.65-.7A.71.71,0,0,1,275.52,104.91Zm0,0a.59.59,0,0,0-.65-.57.58.58,0,0,0,0,1.15A.59.59,0,0,0,275.52,104.91Z" style="fill: rgb(55, 71, 79); transform-origin: 274.81px 104.917px;" id="ely2usdzvtc6" class="animable"></path><path d="M232.84,96.85a.7.7,0,0,1-.64.7.7.7,0,1,1,0-1.4A.7.7,0,0,1,232.84,96.85Zm0,0a.58.58,0,1,0-.64.58A.59.59,0,0,0,232.84,96.85Z" style="fill: rgb(55, 71, 79); transform-origin: 232.17px 96.85px;" id="elwcl17fns4w" class="animable"></path><path d="M240,96.85a.7.7,0,0,1-.64.7.7.7,0,1,1,0-1.4A.7.7,0,0,1,240,96.85Zm0,0a.58.58,0,1,0-.64.58A.59.59,0,0,0,240,96.85Z" style="fill: rgb(55, 71, 79); transform-origin: 239.33px 96.85px;" id="elscomqiagffj" class="animable"></path><path d="M225.73,96.85a.71.71,0,0,1-.65.7.71.71,0,0,1-.76-.7.71.71,0,0,1,1.41,0Zm0,0a.59.59,0,0,0-.65-.58.58.58,0,0,0,0,1.16A.59.59,0,0,0,225.73,96.85Z" style="fill: rgb(55, 71, 79); transform-origin: 225.025px 96.8879px;" id="elp1iba7z9jg" class="animable"></path><path d="M247.06,96.85a.69.69,0,0,1-.64.7.71.71,0,0,1-.76-.7.7.7,0,0,1,.76-.7A.69.69,0,0,1,247.06,96.85Zm0,0a.58.58,0,0,0-.64-.58.57.57,0,0,0-.51.58.58.58,0,1,0,1.15,0Z" style="fill: rgb(55, 71, 79); transform-origin: 246.362px 96.8496px;" id="ely40eixo47h" class="animable"></path><path d="M254.18,96.85a.7.7,0,0,1-.64.7.7.7,0,1,1,0-1.4A.7.7,0,0,1,254.18,96.85Zm0,0a.58.58,0,1,0-.64.58A.59.59,0,0,0,254.18,96.85Z" style="fill: rgb(55, 71, 79); transform-origin: 253.51px 96.85px;" id="elrajuxbnecbq" class="animable"></path><path d="M261.29,96.85a.7.7,0,0,1-.64.7.7.7,0,1,1,0-1.4A.7.7,0,0,1,261.29,96.85Zm0,0a.58.58,0,1,0-.64.58A.59.59,0,0,0,261.29,96.85Z" style="fill: rgb(55, 71, 79); transform-origin: 260.62px 96.85px;" id="el2qk0ounkwwx" class="animable"></path><path d="M268.4,96.85a.69.69,0,0,1-.64.7.7.7,0,1,1,0-1.4A.69.69,0,0,1,268.4,96.85Zm0,0a.59.59,0,0,0-.64-.58.57.57,0,0,0-.51.58.58.58,0,0,0,.51.58A.59.59,0,0,0,268.4,96.85Z" style="fill: rgb(55, 71, 79); transform-origin: 267.73px 96.85px;" id="el33kw20egkbc" class="animable"></path><path d="M275.52,96.85a.71.71,0,0,1-.65.7.71.71,0,0,1-.76-.7.71.71,0,0,1,1.41,0Zm0,0a.59.59,0,0,0-.65-.58.57.57,0,0,0-.51.58.58.58,0,0,0,.51.58A.59.59,0,0,0,275.52,96.85Z" style="fill: rgb(55, 71, 79); transform-origin: 274.815px 96.8879px;" id="elrs9xa5kh1m" class="animable"></path><path d="M232.84,137.68a.71.71,0,1,1-.64-.7A.71.71,0,0,1,232.84,137.68Zm0,0a.59.59,0,0,0-.64-.57.57.57,0,0,0-.52.57.58.58,0,1,0,1.16,0Z" style="fill: rgb(55, 71, 79); transform-origin: 232.13px 137.687px;" id="el5iap1pssc9f" class="animable"></path><path d="M240,137.68a.7.7,0,1,1-1.4,0,.7.7,0,1,1,1.4,0Zm0,0a.59.59,0,0,0-.64-.57.57.57,0,0,0-.52.57.58.58,0,1,0,1.16,0Z" style="fill: rgb(55, 71, 79); transform-origin: 239.3px 137.68px;" id="elpl2xu7wuem" class="animable"></path><path d="M225.73,137.68a.71.71,0,1,1-1.41,0,.71.71,0,0,1,1.41,0Zm0,0a.59.59,0,0,0-.65-.57.58.58,0,0,0,0,1.15A.59.59,0,0,0,225.73,137.68Z" style="fill: rgb(55, 71, 79); transform-origin: 225.025px 137.764px;" id="el28bjbuw3qyh" class="animable"></path><path d="M247.06,137.68a.7.7,0,1,1-.64-.7A.7.7,0,0,1,247.06,137.68Zm0,0a.58.58,0,0,0-.64-.57.56.56,0,0,0-.51.57.58.58,0,1,0,1.15,0Z" style="fill: rgb(55, 71, 79); transform-origin: 246.363px 137.677px;" id="elqr041vnqvke" class="animable"></path><path d="M254.18,137.68a.71.71,0,1,1-.64-.7A.71.71,0,0,1,254.18,137.68Zm0,0a.59.59,0,0,0-.64-.57.57.57,0,0,0-.52.57.58.58,0,1,0,1.16,0Z" style="fill: rgb(55, 71, 79); transform-origin: 253.47px 137.687px;" id="elnh9iyr35kur" class="animable"></path><path d="M261.29,137.68a.71.71,0,1,1-.64-.7A.7.7,0,0,1,261.29,137.68Zm0,0a.59.59,0,0,0-.64-.57.57.57,0,0,0-.52.57.58.58,0,1,0,1.16,0Z" style="fill: rgb(55, 71, 79); transform-origin: 260.58px 137.687px;" id="elpvqg2gui1as" class="animable"></path><path d="M268.4,137.68a.7.7,0,1,1-.64-.7A.7.7,0,0,1,268.4,137.68Zm0,0a.59.59,0,0,0-.64-.57.56.56,0,0,0-.51.57.57.57,0,0,0,.51.58A.59.59,0,0,0,268.4,137.68Z" style="fill: rgb(55, 71, 79); transform-origin: 267.7px 137.677px;" id="eld6f1blssodr" class="animable"></path><path d="M275.52,137.68a.71.71,0,1,1-1.41,0,.71.71,0,0,1,1.41,0Zm0,0a.59.59,0,0,0-.65-.57.56.56,0,0,0-.51.57.57.57,0,0,0,.51.58A.59.59,0,0,0,275.52,137.68Z" style="fill: rgb(55, 71, 79); transform-origin: 274.815px 137.764px;" id="elknb6t84i9ya" class="animable"></path><path d="M232.84,170.45a.71.71,0,1,1-.64-.7A.7.7,0,0,1,232.84,170.45Zm0,0a.58.58,0,1,0-1.16,0,.58.58,0,1,0,1.16,0Z" style="fill: rgb(55, 71, 79); transform-origin: 232.13px 170.457px;" id="elyizskdjwigp" class="animable"></path><path d="M240,170.45a.7.7,0,1,1-1.4,0,.7.7,0,0,1,.76-.7A.7.7,0,0,1,240,170.45Zm0,0a.58.58,0,1,0-1.16,0,.58.58,0,1,0,1.16,0Z" style="fill: rgb(55, 71, 79); transform-origin: 239.3px 170.449px;" id="elm0waea1ro9m" class="animable"></path><path d="M225.73,170.45a.71.71,0,1,1-1.41,0,.71.71,0,0,1,1.41,0Zm0,0a.6.6,0,0,0-.65-.58.59.59,0,0,0-.51.58.57.57,0,0,0,.51.58A.59.59,0,0,0,225.73,170.45Z" style="fill: rgb(55, 71, 79); transform-origin: 225.025px 170.534px;" id="elhjzymlo7zc" class="animable"></path><path d="M247.06,170.45a.7.7,0,1,1-.64-.7A.69.69,0,0,1,247.06,170.45Zm0,0a.59.59,0,0,0-.64-.58.58.58,0,0,0-.51.58.58.58,0,1,0,1.15,0Z" style="fill: rgb(55, 71, 79); transform-origin: 246.363px 170.447px;" id="eltm4z1l62os" class="animable"></path><path d="M254.18,170.45a.71.71,0,1,1-.64-.7A.7.7,0,0,1,254.18,170.45Zm0,0a.58.58,0,1,0-1.16,0,.58.58,0,1,0,1.16,0Z" style="fill: rgb(55, 71, 79); transform-origin: 253.47px 170.457px;" id="el3hxotrdzuox" class="animable"></path><path d="M261.29,170.45a.71.71,0,1,1-.64-.7A.7.7,0,0,1,261.29,170.45Zm0,0a.58.58,0,1,0-1.16,0,.58.58,0,1,0,1.16,0Z" style="fill: rgb(55, 71, 79); transform-origin: 260.58px 170.457px;" id="elmycjz9nc31k" class="animable"></path><path d="M268.4,170.45a.7.7,0,1,1-1.4,0,.7.7,0,0,1,.76-.7A.69.69,0,0,1,268.4,170.45Zm0,0a.59.59,0,0,0-.64-.58.58.58,0,0,0-.51.58.57.57,0,0,0,.51.58A.59.59,0,0,0,268.4,170.45Z" style="fill: rgb(55, 71, 79); transform-origin: 267.7px 170.451px;" id="el663tyzi0qy6" class="animable"></path><path d="M275.52,170.45a.71.71,0,1,1-1.41,0,.71.71,0,0,1,1.41,0Zm0,0a.6.6,0,0,0-.65-.58.58.58,0,0,0-.51.58.57.57,0,0,0,.51.58A.59.59,0,0,0,275.52,170.45Z" style="fill: rgb(55, 71, 79); transform-origin: 274.815px 170.534px;" id="elkyeik0hk3c7" class="animable"></path><path d="M232.84,203.22a.7.7,0,0,1-.64.7.7.7,0,1,1,0-1.4A.7.7,0,0,1,232.84,203.22Zm0,0a.58.58,0,1,0-.64.58A.59.59,0,0,0,232.84,203.22Z" style="fill: rgb(55, 71, 79); transform-origin: 232.17px 203.22px;" id="elx4cnylpzjle" class="animable"></path><path d="M240,203.22a.7.7,0,1,1-1.4,0,.7.7,0,0,1,.76-.7A.7.7,0,0,1,240,203.22Zm0,0a.58.58,0,1,0-.64.58A.59.59,0,0,0,240,203.22Z" style="fill: rgb(55, 71, 79); transform-origin: 239.3px 203.219px;" id="elu96dm3eoeur" class="animable"></path><path d="M225.73,203.22a.71.71,0,1,1-.65-.7A.71.71,0,0,1,225.73,203.22Zm0,0a.58.58,0,1,0-1.16,0,.57.57,0,0,0,.51.58A.59.59,0,0,0,225.73,203.22Z" style="fill: rgb(55, 71, 79); transform-origin: 225.02px 203.227px;" id="el42grx2o7n9e" class="animable"></path><path d="M247.06,203.22a.69.69,0,0,1-.64.7.7.7,0,1,1,0-1.4A.69.69,0,0,1,247.06,203.22Zm0,0a.58.58,0,1,0-1.15,0,.58.58,0,1,0,1.15,0Z" style="fill: rgb(55, 71, 79); transform-origin: 246.392px 203.22px;" id="elk605vi33x97" class="animable"></path><path d="M254.18,203.22a.7.7,0,0,1-.64.7.7.7,0,1,1,0-1.4A.7.7,0,0,1,254.18,203.22Zm0,0a.58.58,0,1,0-.64.58A.59.59,0,0,0,254.18,203.22Z" style="fill: rgb(55, 71, 79); transform-origin: 253.51px 203.22px;" id="ell6a31tf9t99" class="animable"></path><path d="M261.29,203.22a.7.7,0,0,1-.64.7.7.7,0,1,1,0-1.4A.7.7,0,0,1,261.29,203.22Zm0,0a.58.58,0,1,0-.64.58A.59.59,0,0,0,261.29,203.22Z" style="fill: rgb(55, 71, 79); transform-origin: 260.62px 203.22px;" id="eledxrs8uo0t7" class="animable"></path><path d="M268.4,203.22a.69.69,0,0,1-.64.7.7.7,0,1,1,0-1.4A.69.69,0,0,1,268.4,203.22Zm0,0a.59.59,0,0,0-.64-.58.58.58,0,0,0-.51.58.57.57,0,0,0,.51.58A.59.59,0,0,0,268.4,203.22Z" style="fill: rgb(55, 71, 79); transform-origin: 267.73px 203.22px;" id="elm9cb8b2358m" class="animable"></path><path d="M275.52,203.22a.71.71,0,1,1-.65-.7A.71.71,0,0,1,275.52,203.22Zm0,0a.59.59,0,0,0-.65-.58.58.58,0,0,0-.51.58.57.57,0,0,0,.51.58A.59.59,0,0,0,275.52,203.22Z" style="fill: rgb(55, 71, 79); transform-origin: 274.81px 203.227px;" id="eliomvb2nprg" class="animable"></path><path d="M232.84,236a.7.7,0,0,1-.64.7.7.7,0,1,1,0-1.4A.7.7,0,0,1,232.84,236Zm0,0a.58.58,0,1,0-.64.58A.59.59,0,0,0,232.84,236Z" style="fill: rgb(55, 71, 79); transform-origin: 232.168px 236px;" id="el5vmndu9jo8q" class="animable"></path><path d="M240,236a.7.7,0,0,1-.64.7.7.7,0,1,1,0-1.4A.7.7,0,0,1,240,236Zm0,0a.58.58,0,1,0-.64.58A.59.59,0,0,0,240,236Z" style="fill: rgb(55, 71, 79); transform-origin: 239.328px 236px;" id="elmxwtgwkjy7" class="animable"></path><path d="M225.73,236a.71.71,0,0,1-.65.7.71.71,0,0,1-.76-.7.71.71,0,0,1,1.41,0Zm0,0a.59.59,0,0,0-.65-.58.58.58,0,0,0-.51.58.57.57,0,0,0,.51.58A.59.59,0,0,0,225.73,236Z" style="fill: rgb(55, 71, 79); transform-origin: 225.025px 236.038px;" id="elq522lz4yvf" class="animable"></path><path d="M247.06,236a.69.69,0,0,1-.64.7.71.71,0,0,1-.76-.7.7.7,0,0,1,.76-.7A.69.69,0,0,1,247.06,236Zm0,0a.58.58,0,0,0-.64-.58.58.58,0,1,0,.64.58Z" style="fill: rgb(55, 71, 79); transform-origin: 246.36px 236px;" id="el8a34y41tvyt" class="animable"></path><path d="M254.18,236a.7.7,0,0,1-.64.7.7.7,0,1,1,0-1.4A.7.7,0,0,1,254.18,236Zm0,0a.58.58,0,1,0-.64.58A.59.59,0,0,0,254.18,236Z" style="fill: rgb(55, 71, 79); transform-origin: 253.508px 236px;" id="el8uq38jngl9q" class="animable"></path><path d="M261.29,236a.7.7,0,0,1-.64.7.7.7,0,1,1,0-1.4A.7.7,0,0,1,261.29,236Zm0,0a.58.58,0,1,0-.64.58A.59.59,0,0,0,261.29,236Z" style="fill: rgb(55, 71, 79); transform-origin: 260.618px 236px;" id="elbttjp32gvpj" class="animable"></path><path d="M268.4,236a.69.69,0,0,1-.64.7.7.7,0,1,1,0-1.4A.69.69,0,0,1,268.4,236Zm0,0a.59.59,0,0,0-.64-.58.58.58,0,0,0-.51.58.57.57,0,0,0,.51.58A.59.59,0,0,0,268.4,236Z" style="fill: rgb(55, 71, 79); transform-origin: 267.728px 236px;" id="el3m4pi7s2cyg" class="animable"></path><path d="M275.52,236a.71.71,0,0,1-.65.7.71.71,0,0,1-.76-.7.71.71,0,0,1,1.41,0Zm0,0a.59.59,0,0,0-.65-.58.58.58,0,0,0-.51.58.57.57,0,0,0,.51.58A.59.59,0,0,0,275.52,236Z" style="fill: rgb(55, 71, 79); transform-origin: 274.815px 236.038px;" id="elgy583w05rpl" class="animable"></path><path d="M250,51.51a3.62,3.62,0,0,0-1.23,1.11c-.35.43-.69.87-1,1.33q-1,1.36-1.86,2.79c-1.19,1.89-2.3,3.84-3.34,5.81a92.18,92.18,0,0,0-5.4,12.26,50.29,50.29,0,0,0-2.94,13c-.14,2.22,0,4.47-.07,6.7v6.71l.08,53.67-.08,53.68,0,26.84L234,262.26l-.13-26.84,0-26.84-.08-53.68.08-53.67V94.52c0-2.24,0-4.47.09-6.72a50.15,50.15,0,0,1,3-13.07,90.77,90.77,0,0,1,5.52-12.23c1.07-2,2.19-3.91,3.4-5.79.6-1,1.22-1.88,1.88-2.78.33-.45.67-.89,1-1.32A3.72,3.72,0,0,1,250,51.51Z" style="fill: rgb(55, 71, 79); transform-origin: 241.895px 156.885px;" id="elbr7q9iu7a3" class="animable"></path><path d="M249.87,51.51a3.63,3.63,0,0,1,1.24,1.1c.36.43.7.87,1,1.32.66.9,1.29,1.83,1.89,2.78,1.21,1.88,2.33,3.82,3.39,5.79a90.77,90.77,0,0,1,5.52,12.23,50.15,50.15,0,0,1,3,13.07c.15,2.25.07,4.48.09,6.72l0,6.71.08,53.67-.08,53.68L266,235.42l-.12,26.84-.12-26.84-.05-26.84-.08-53.68.08-53.67V94.52c0-2.23.07-4.48-.06-6.7a50.31,50.31,0,0,0-3-13,92.12,92.12,0,0,0-5.39-12.26c-1.05-2-2.15-3.92-3.34-5.81q-.89-1.43-1.86-2.79c-.33-.46-.66-.9-1-1.33A3.53,3.53,0,0,0,249.87,51.51Z" style="fill: rgb(55, 71, 79); transform-origin: 257.975px 156.885px;" id="eldbxp10eq6j" class="animable"></path><path d="M222.84,123.84V262.26h-21.6V123.84c0-8-.55-12.67,4.23-19.42,4.16-5.88,5.8-6.65,6.57-6.65s2.41.77,6.57,6.65C223.38,111.17,222.84,115.82,222.84,123.84Z" style="fill: rgb(55, 71, 79); transform-origin: 212.04px 180.015px;" id="eld9bk6fozm5a" class="animable"></path><rect x="222.79" y="120.32" width="4.47" height="1.82" style="fill: rgb(55, 71, 79); transform-origin: 225.025px 121.23px;" id="elyj5vrb9yh9r" class="animable"></rect><rect x="222.79" y="137.41" width="4.47" height="1.82" style="fill: rgb(55, 71, 79); transform-origin: 225.025px 138.32px;" id="elg75tskogj9" class="animable"></rect><rect x="222.79" y="154.51" width="4.47" height="1.82" style="fill: rgb(55, 71, 79); transform-origin: 225.025px 155.42px;" id="elsu44p8dydh" class="animable"></rect><rect x="222.79" y="171.61" width="4.47" height="1.82" style="fill: rgb(55, 71, 79); transform-origin: 225.025px 172.52px;" id="el7y5ez9ess2s" class="animable"></rect><path d="M201.62,113.28c3.48-.21,6.95-.22,10.42-.25s6.94,0,10.41.25c-3.47.21-6.94.22-10.41.25S205.1,113.49,201.62,113.28Z" style="fill: rgb(38, 50, 56); transform-origin: 212.035px 113.279px;" id="elhh6o073n6n8" class="animable"></path><path d="M201.22,130.13c3.6-.21,7.21-.22,10.82-.25s7.21,0,10.82.25c-3.61.2-7.22.22-10.82.25S204.82,130.33,201.22,130.13Z" style="fill: rgb(38, 50, 56); transform-origin: 212.04px 130.128px;" id="el79raigc5cw6" class="animable"></path><path d="M201.22,148.89c3.6-.21,7.21-.22,10.82-.25s7.21,0,10.82.25c-3.61.2-7.22.22-10.82.25S204.82,149.09,201.22,148.89Z" style="fill: rgb(38, 50, 56); transform-origin: 212.04px 148.888px;" id="el79bqonsgggc" class="animable"></path><path d="M201.22,167.65c3.6-.21,7.21-.22,10.82-.25s7.21,0,10.82.25c-3.61.2-7.22.22-10.82.25S204.82,167.85,201.22,167.65Z" style="fill: rgb(38, 50, 56); transform-origin: 212.04px 167.648px;" id="elojzc9ztng69" class="animable"></path><path d="M201.22,186.41c3.6-.21,7.21-.22,10.82-.25s7.21,0,10.82.25c-3.61.2-7.22.22-10.82.25S204.82,186.61,201.22,186.41Z" style="fill: rgb(38, 50, 56); transform-origin: 212.04px 186.408px;" id="elmtm712fsobc" class="animable"></path><path d="M201.22,205.17c3.6-.21,7.21-.22,10.82-.25s7.21,0,10.82.25c-3.61.2-7.22.22-10.82.25S204.82,205.37,201.22,205.17Z" style="fill: rgb(38, 50, 56); transform-origin: 212.04px 205.168px;" id="eldkd6xzfgbxk" class="animable"></path><path d="M201.22,223.93c3.6-.21,7.21-.22,10.82-.25s7.21,0,10.82.25c-3.61.2-7.22.22-10.82.24S204.82,224.13,201.22,223.93Z" style="fill: rgb(38, 50, 56); transform-origin: 212.04px 223.922px;" id="elwqhkv2yv8rr" class="animable"></path><path d="M201.22,242.68c3.6-.2,7.21-.22,10.82-.24s7.21,0,10.82.24c-3.61.21-7.22.23-10.82.25S204.82,242.89,201.22,242.68Z" style="fill: rgb(38, 50, 56); transform-origin: 212.04px 242.684px;" id="el19g8qjsopgq" class="animable"></path><path d="M216.68,124l-4.59.13c-1.55,0-3.12.09-4.69.09h-.22V124l0-4.55v-.26h.25c3.09,0,6.18,0,9.28.1h.15v.15C216.8,121,216.71,122.55,216.68,124Zm0,0c0-1.56-.13-3.08-.15-4.55l.15.14c-3.1.08-6.19.08-9.28.11l.25-.25,0,4.55-.22-.22c1.52,0,3,0,4.58.08Z" style="fill: rgb(38, 50, 56); transform-origin: 212.02px 121.705px;" id="eleyacc5zp139" class="animable"></path><path d="M212.68,114.69a.77.77,0,1,1-.64-.77A.78.78,0,0,1,212.68,114.69Zm0,0a.52.52,0,1,0-1,0,.52.52,0,1,0,1,0Z" style="fill: rgb(38, 50, 56); transform-origin: 211.92px 114.679px;" id="elusew56d0l4" class="animable"></path><path d="M219.79,114.69a.77.77,0,0,1-.64.77.78.78,0,1,1,0-1.54A.76.76,0,0,1,219.79,114.69Zm0,0a.52.52,0,1,0-1,0,.52.52,0,1,0,1,0Z" style="fill: rgb(38, 50, 56); transform-origin: 219.028px 114.69px;" id="elr3k4w1vlx2" class="animable"></path><path d="M205.57,114.69a.78.78,0,0,1-.64.77.78.78,0,1,1,0-1.54A.78.78,0,0,1,205.57,114.69Zm0,0a.52.52,0,0,0-.64-.51.53.53,0,0,0,0,1A.53.53,0,0,0,205.57,114.69Z" style="fill: rgb(38, 50, 56); transform-origin: 204.798px 114.69px;" id="elz91o6dariz" class="animable"></path><path d="M212.68,131.75A.77.77,0,1,1,212,131,.78.78,0,0,1,212.68,131.75Zm0,0a.52.52,0,1,0-1,0,.52.52,0,1,0,1,0Z" style="fill: rgb(38, 50, 56); transform-origin: 211.92px 131.765px;" id="ellevo9wa8ko" class="animable"></path><path d="M219.79,131.75a.77.77,0,0,1-.64.77.78.78,0,1,1,0-1.54A.76.76,0,0,1,219.79,131.75Zm0,0a.52.52,0,1,0-1,0,.52.52,0,1,0,1,0Z" style="fill: rgb(38, 50, 56); transform-origin: 219.028px 131.75px;" id="elv3yakiq61uj" class="animable"></path><path d="M205.57,131.75a.78.78,0,0,1-.64.77.78.78,0,1,1,0-1.54A.78.78,0,0,1,205.57,131.75Zm0,0a.52.52,0,0,0-.64-.51.53.53,0,0,0,0,1A.53.53,0,0,0,205.57,131.75Z" style="fill: rgb(38, 50, 56); transform-origin: 204.798px 131.75px;" id="el3hbiuux4o6x" class="animable"></path><path d="M212.68,150.59a.78.78,0,0,1-.64.76.77.77,0,1,1,0-1.53A.78.78,0,0,1,212.68,150.59Zm0,0a.52.52,0,1,0-1,0,.52.52,0,1,0,1,0Z" style="fill: rgb(38, 50, 56); transform-origin: 211.941px 150.585px;" id="elwkk7zrr4vd" class="animable"></path><path d="M219.79,150.59a.77.77,0,1,1-.64-.77A.77.77,0,0,1,219.79,150.59Zm0,0a.52.52,0,1,0-1,0,.52.52,0,1,0,1,0Z" style="fill: rgb(38, 50, 56); transform-origin: 219.03px 150.579px;" id="elvbu0m2d2cfa" class="animable"></path><path d="M205.57,150.59a.77.77,0,1,1-.64-.77A.78.78,0,0,1,205.57,150.59Zm0,0a.52.52,0,1,0-1,0,.52.52,0,0,0,.4.51A.52.52,0,0,0,205.57,150.59Z" style="fill: rgb(38, 50, 56); transform-origin: 204.81px 150.579px;" id="el7bfe2impfc9" class="animable"></path><path d="M212.68,169.42a.78.78,0,0,1-.64.77.77.77,0,1,1,0-1.53A.78.78,0,0,1,212.68,169.42Zm0,0a.53.53,0,0,0-.64-.51.54.54,0,0,0,0,1A.53.53,0,0,0,212.68,169.42Z" style="fill: rgb(38, 50, 56); transform-origin: 211.931px 169.425px;" id="elm438k6kocog" class="animable"></path><path d="M219.79,169.42a.77.77,0,1,1-.64-.76A.76.76,0,0,1,219.79,169.42Zm0,0a.52.52,0,0,0-.64-.51.54.54,0,0,0,0,1A.52.52,0,0,0,219.79,169.42Z" style="fill: rgb(38, 50, 56); transform-origin: 219.02px 169.419px;" id="elfm2iy5q7ky" class="animable"></path><path d="M205.57,169.42a.77.77,0,1,1-.64-.76A.78.78,0,0,1,205.57,169.42Zm0,0a.52.52,0,1,0-1,0,.52.52,0,0,0,.4.52A.53.53,0,0,0,205.57,169.42Z" style="fill: rgb(38, 50, 56); transform-origin: 204.81px 169.419px;" id="elz1rgd2qpta" class="animable"></path><path d="M212.68,188.26a.78.78,0,0,1-.64.77.78.78,0,1,1,.64-.77Zm0,0a.52.52,0,1,0-1,0,.52.52,0,1,0,1,0Z" style="fill: rgb(38, 50, 56); transform-origin: 211.91px 188.263px;" id="el6s1s2akv47" class="animable"></path><path d="M219.79,188.26a.77.77,0,1,1-.64-.76A.75.75,0,0,1,219.79,188.26Zm0,0a.52.52,0,1,0-1,0,.52.52,0,1,0,1,0Z" style="fill: rgb(38, 50, 56); transform-origin: 219.03px 188.259px;" id="elnn4je2qfux" class="animable"></path><path d="M205.57,188.26a.77.77,0,1,1-.64-.76A.77.77,0,0,1,205.57,188.26Zm0,0a.52.52,0,0,0-.64-.51.53.53,0,0,0,0,1A.53.53,0,0,0,205.57,188.26Z" style="fill: rgb(38, 50, 56); transform-origin: 204.8px 188.259px;" id="ellcu21g7cmw" class="animable"></path><path d="M212.68,207.1a.77.77,0,1,1-.64-.77A.78.78,0,0,1,212.68,207.1Zm0,0a.52.52,0,1,0-.64.52A.53.53,0,0,0,212.68,207.1Z" style="fill: rgb(38, 50, 56); transform-origin: 211.91px 207.089px;" id="el32az2gu8ai1" class="animable"></path><path d="M219.79,207.1a.76.76,0,0,1-.64.76.77.77,0,1,1,0-1.53A.76.76,0,0,1,219.79,207.1Zm0,0a.53.53,0,0,0-.64-.52.54.54,0,0,0,0,1A.53.53,0,0,0,219.79,207.1Z" style="fill: rgb(38, 50, 56); transform-origin: 219.041px 207.095px;" id="elupnyngwq1e" class="animable"></path><path d="M205.57,207.1a.77.77,0,0,1-.64.76.78.78,0,1,1,.64-.76Zm0,0a.53.53,0,0,0-.64-.52.55.55,0,0,0-.4.52.52.52,0,1,0,1,0Z" style="fill: rgb(38, 50, 56); transform-origin: 204.79px 207.093px;" id="elqjka2b89nkn" class="animable"></path><path d="M212.68,225.94a.78.78,0,0,1-.64.76.77.77,0,1,1,0-1.53A.78.78,0,0,1,212.68,225.94Zm0,0a.53.53,0,0,0-.64-.52.53.53,0,1,0,.64.52Z" style="fill: rgb(38, 50, 56); transform-origin: 211.931px 225.935px;" id="elwyfkyapk9xg" class="animable"></path><path d="M219.79,225.94a.77.77,0,1,1-.64-.77A.77.77,0,0,1,219.79,225.94Zm0,0a.52.52,0,1,0-1,0,.52.52,0,1,0,1,0Z" style="fill: rgb(38, 50, 56); transform-origin: 219.03px 225.929px;" id="el9m8qq7a4r0j" class="animable"></path><path d="M205.57,225.94a.77.77,0,1,1-.64-.77A.78.78,0,0,1,205.57,225.94Zm0,0a.52.52,0,1,0-1,0,.52.52,0,0,0,.4.51A.52.52,0,0,0,205.57,225.94Z" style="fill: rgb(38, 50, 56); transform-origin: 204.81px 225.929px;" id="elrv2li0hhknh" class="animable"></path><path d="M212.68,244.77a.78.78,0,0,1-.64.77.78.78,0,1,1,.64-.77Zm0,0a.52.52,0,1,0-1,0,.52.52,0,1,0,1,0Z" style="fill: rgb(38, 50, 56); transform-origin: 211.91px 244.773px;" id="elok3jch7arsm" class="animable"></path><path d="M219.79,244.77a.77.77,0,1,1-.64-.76A.75.75,0,0,1,219.79,244.77Zm0,0a.52.52,0,1,0-1,0,.52.52,0,1,0,1,0Z" style="fill: rgb(38, 50, 56); transform-origin: 219.03px 244.769px;" id="el09a71v6f4pss" class="animable"></path><path d="M205.57,244.77a.77.77,0,1,1-.64-.76A.77.77,0,0,1,205.57,244.77Zm0,0a.52.52,0,0,0-.64-.51.53.53,0,1,0,.64.51Z" style="fill: rgb(38, 50, 56); transform-origin: 204.8px 244.769px;" id="el0ictkehmbjul" class="animable"></path><path d="M207.84,107.89a.39.39,0,1,1-.39-.39A.38.38,0,0,1,207.84,107.89Z" style="fill: rgb(38, 50, 56); transform-origin: 207.45px 107.89px;" id="elx41xn2iq4b" class="animable"></path><path d="M209.37,110a.39.39,0,0,1-.39.38.39.39,0,0,1,0-.77A.39.39,0,0,1,209.37,110Z" style="fill: rgb(38, 50, 56); transform-origin: 209.011px 109.995px;" id="el6fs3cqplk3g" class="animable"></path><path d="M212.42,110a.38.38,0,0,1-.38.38.39.39,0,1,1,0-.77A.38.38,0,0,1,212.42,110Z" style="fill: rgb(38, 50, 56); transform-origin: 212.004px 109.995px;" id="elmb4gf1alnnh" class="animable"></path><path d="M215.48,110a.39.39,0,1,1-.39-.39A.38.38,0,0,1,215.48,110Z" style="fill: rgb(38, 50, 56); transform-origin: 215.09px 110px;" id="ele6kp394ku9a" class="animable"></path><path d="M210.89,107.89a.38.38,0,1,1-.38-.39A.38.38,0,0,1,210.89,107.89Z" style="fill: rgb(38, 50, 56); transform-origin: 210.51px 107.88px;" id="elnbe1fnp0re" class="animable"></path><path d="M214,107.89a.39.39,0,0,1-.77,0,.39.39,0,1,1,.77,0Z" style="fill: rgb(38, 50, 56); transform-origin: 213.615px 107.828px;" id="elpax206a9ckg" class="animable"></path><path d="M217,107.89a.39.39,0,0,1-.39.38.39.39,0,0,1,0-.77A.39.39,0,0,1,217,107.89Z" style="fill: rgb(38, 50, 56); transform-origin: 216.641px 107.885px;" id="el4btqzdp5rji" class="animable"></path><path d="M209.37,121.75a.4.4,0,0,1-.39.39.39.39,0,0,1-.38-.39.38.38,0,0,1,.38-.38A.39.39,0,0,1,209.37,121.75Z" style="fill: rgb(38, 50, 56); transform-origin: 208.985px 121.755px;" id="elgjmwtsvslqj" class="animable"></path><path d="M212.42,121.75a.39.39,0,0,1-.38.39.4.4,0,0,1-.39-.39.39.39,0,0,1,.39-.38A.38.38,0,0,1,212.42,121.75Z" style="fill: rgb(38, 50, 56); transform-origin: 212.035px 121.755px;" id="el6j6n12kei1x" class="animable"></path><path d="M215.48,121.75a.39.39,0,1,1-.77,0,.39.39,0,0,1,.77,0Z" style="fill: rgb(38, 50, 56); transform-origin: 215.095px 121.812px;" id="elstyg4n2q62k" class="animable"></path><rect x="197.4" y="120.32" width="3.81" height="8.57" style="fill: rgb(55, 71, 79); transform-origin: 199.305px 124.605px;" id="el857fcwxpujk" class="animable"></rect><path d="M277.12,123.84V262.26h21.6V123.84c0-8,.54-12.67-4.24-19.42-4.16-5.88-5.8-6.65-6.56-6.65s-2.41.77-6.57,6.65C276.57,111.17,277.12,115.82,277.12,123.84Z" style="fill: rgb(55, 71, 79); transform-origin: 287.92px 180.015px;" id="eljn6nt8ansig" class="animable"></path><g id="el2z6xtfitn4e"><rect x="272.69" y="120.32" width="4.47" height="1.82" style="fill: rgb(55, 71, 79); transform-origin: 274.925px 121.23px; transform: rotate(180deg);" class="animable"></rect></g><g id="el8ww3s727esw"><rect x="272.69" y="137.41" width="4.47" height="1.82" style="fill: rgb(55, 71, 79); transform-origin: 274.925px 138.32px; transform: rotate(180deg);" class="animable"></rect></g><g id="eleqxgxdl9a1j"><rect x="272.69" y="154.51" width="4.47" height="1.82" style="fill: rgb(55, 71, 79); transform-origin: 274.925px 155.42px; transform: rotate(180deg);" class="animable"></rect></g><g id="elvqffnv2bf8l"><rect x="272.69" y="171.61" width="4.47" height="1.82" style="fill: rgb(55, 71, 79); transform-origin: 274.925px 172.52px; transform: rotate(180deg);" class="animable"></rect></g><path d="M298.33,113.28c-3.47-.21-6.94-.22-10.41-.25s-6.95,0-10.42.25c3.47.21,6.95.22,10.42.25S294.86,113.49,298.33,113.28Z" style="fill: rgb(38, 50, 56); transform-origin: 287.915px 113.279px;" id="el9uhc48la02s" class="animable"></path><path d="M298.74,130.13c-3.61-.21-7.22-.22-10.82-.25s-7.22,0-10.82.25c3.6.2,7.21.22,10.82.25S295.13,130.33,298.74,130.13Z" style="fill: rgb(38, 50, 56); transform-origin: 287.92px 130.128px;" id="elbd85dd02gl" class="animable"></path><path d="M298.74,148.89c-3.61-.21-7.22-.22-10.82-.25s-7.22,0-10.82.25c3.6.2,7.21.22,10.82.25S295.13,149.09,298.74,148.89Z" style="fill: rgb(38, 50, 56); transform-origin: 287.92px 148.888px;" id="elft6c9ehhcol" class="animable"></path><path d="M298.74,167.65c-3.61-.21-7.22-.22-10.82-.25s-7.22,0-10.82.25c3.6.2,7.21.22,10.82.25S295.13,167.85,298.74,167.65Z" style="fill: rgb(38, 50, 56); transform-origin: 287.92px 167.648px;" id="elywzu5li8yb9" class="animable"></path><path d="M298.74,186.41c-3.61-.21-7.22-.22-10.82-.25s-7.22,0-10.82.25c3.6.2,7.21.22,10.82.25S295.13,186.61,298.74,186.41Z" style="fill: rgb(38, 50, 56); transform-origin: 287.92px 186.408px;" id="eldanr1dkry0g" class="animable"></path><path d="M298.74,205.17c-3.61-.21-7.22-.22-10.82-.25s-7.22,0-10.82.25c3.6.2,7.21.22,10.82.25S295.13,205.37,298.74,205.17Z" style="fill: rgb(38, 50, 56); transform-origin: 287.92px 205.168px;" id="el1td6oi5v5lj" class="animable"></path><path d="M298.74,223.93c-3.61-.21-7.22-.22-10.82-.25s-7.22,0-10.82.25c3.6.2,7.21.22,10.82.24S295.13,224.13,298.74,223.93Z" style="fill: rgb(38, 50, 56); transform-origin: 287.92px 223.922px;" id="el8hbxsq6v67j" class="animable"></path><path d="M298.74,242.68c-3.61-.2-7.22-.22-10.82-.24s-7.22,0-10.82.24c3.6.21,7.21.23,10.82.25S295.13,242.89,298.74,242.68Z" style="fill: rgb(38, 50, 56); transform-origin: 287.92px 242.684px;" id="elequv8l44nqk" class="animable"></path><path d="M283.13,119.48v-.15h.15c3.09-.08,6.18-.08,9.28-.1h.25v.26l0,4.55v.22h-.22c-1.58,0-3.15-.06-4.7-.09l-4.58-.13C283.25,122.55,283.15,121,283.13,119.48Zm4.84,4.41c1.54,0,3.07-.08,4.59-.08l-.22.22,0-4.55.25.25c-3.1,0-6.19,0-9.28-.11l.14-.14c0,1.47-.11,3-.14,4.55Z" style="fill: rgb(38, 50, 56); transform-origin: 287.97px 121.745px;" id="el2lke0v51rc1" class="animable"></path><path d="M287.92,113.92a.78.78,0,1,1,0,1.54.78.78,0,0,1,0-1.54Zm0,1.29a.53.53,0,0,0,.39-.52.52.52,0,1,0-1,0A.53.53,0,0,0,287.92,115.21Z" style="fill: rgb(38, 50, 56); transform-origin: 288.044px 114.69px;" id="el5xlyaw05if" class="animable"></path><path d="M280.8,113.92a.78.78,0,1,1-.64.77A.78.78,0,0,1,280.8,113.92Zm0,1.29a.52.52,0,0,0,.39-.52.51.51,0,0,0-.39-.51.52.52,0,0,0-.64.51A.53.53,0,0,0,280.8,115.21Z" style="fill: rgb(38, 50, 56); transform-origin: 280.94px 114.687px;" id="el62zdb2wx7ri" class="animable"></path><path d="M295,113.92a.78.78,0,1,1-.64.77A.78.78,0,0,1,295,113.92Zm0,1.29a.53.53,0,0,0,.39-.52.52.52,0,1,0-1,0A.53.53,0,0,0,295,115.21Z" style="fill: rgb(38, 50, 56); transform-origin: 295.14px 114.687px;" id="ellgffefnu86" class="animable"></path><path d="M287.92,131a.78.78,0,1,1,0,1.54.78.78,0,0,1,0-1.54Zm0,1.29a.53.53,0,0,0,.39-.52.52.52,0,1,0-1,0A.53.53,0,0,0,287.92,132.27Z" style="fill: rgb(38, 50, 56); transform-origin: 288.045px 131.77px;" id="el2hhqxw257b5" class="animable"></path><path d="M280.8,131a.78.78,0,1,1-.64.77A.78.78,0,0,1,280.8,131Zm0,1.29a.52.52,0,0,0,.39-.52.51.51,0,0,0-.39-.51.52.52,0,0,0-.64.51A.53.53,0,0,0,280.8,132.27Z" style="fill: rgb(38, 50, 56); transform-origin: 280.94px 131.767px;" id="elvg369tywp0m" class="animable"></path><path d="M295,131a.78.78,0,1,1-.64.77A.78.78,0,0,1,295,131Zm0,1.29a.53.53,0,0,0,.39-.52.52.52,0,1,0-1,0A.53.53,0,0,0,295,132.27Z" style="fill: rgb(38, 50, 56); transform-origin: 295.14px 131.767px;" id="elj1mp29ei4pd" class="animable"></path><path d="M287.92,149.82a.77.77,0,1,1,0,1.53.78.78,0,0,1,0-1.53Zm0,1.28a.52.52,0,0,0,.39-.51.52.52,0,1,0-1,0A.52.52,0,0,0,287.92,151.1Z" style="fill: rgb(38, 50, 56); transform-origin: 288.034px 150.585px;" id="elyie1klz4h1m" class="animable"></path><path d="M280.8,149.82a.77.77,0,1,1,0,1.53.78.78,0,0,1,0-1.53Zm0,1.28a.51.51,0,0,0,.39-.51.52.52,0,0,0-.39-.52.53.53,0,0,0-.64.52A.52.52,0,0,0,280.8,151.1Z" style="fill: rgb(38, 50, 56); transform-origin: 280.909px 150.585px;" id="eloner4i12yi" class="animable"></path><path d="M295,149.82a.78.78,0,1,1-.64.77A.77.77,0,0,1,295,149.82Zm0,1.28a.52.52,0,0,0,.39-.51.52.52,0,1,0-1,0A.52.52,0,0,0,295,151.1Z" style="fill: rgb(38, 50, 56); transform-origin: 295.14px 150.587px;" id="elt0mrhg7ar6f" class="animable"></path><path d="M287.92,168.66a.77.77,0,1,1,0,1.53.78.78,0,0,1,0-1.53Zm0,1.28a.53.53,0,1,0-.64-.52A.52.52,0,0,0,287.92,169.94Z" style="fill: rgb(38, 50, 56); transform-origin: 288.029px 169.425px;" id="elfhqqohsilhb" class="animable"></path><path d="M280.8,168.66a.77.77,0,1,1,0,1.53.78.78,0,0,1,0-1.53Zm0,1.28a.54.54,0,0,0,0-1,.53.53,0,1,0,0,1Z" style="fill: rgb(38, 50, 56); transform-origin: 280.876px 169.425px;" id="elzqpiaimdwtq" class="animable"></path><path d="M295,168.66a.78.78,0,1,1-.64.76A.77.77,0,0,1,295,168.66Zm0,1.28a.54.54,0,0,0,0-1,.53.53,0,1,0,0,1Z" style="fill: rgb(38, 50, 56); transform-origin: 295.107px 169.427px;" id="elsoqpuz4czv" class="animable"></path><path d="M287.92,187.5a.77.77,0,1,1,0,1.53.76.76,0,0,1-.64-.77A.75.75,0,0,1,287.92,187.5Zm0,1.28a.53.53,0,0,0,.39-.52.52.52,0,1,0-1,0A.53.53,0,0,0,287.92,188.78Z" style="fill: rgb(38, 50, 56); transform-origin: 288.029px 188.265px;" id="elcpj0o3i89or" class="animable"></path><path d="M280.8,187.5a.77.77,0,1,1,0,1.53.78.78,0,0,1-.64-.77A.77.77,0,0,1,280.8,187.5Zm0,1.28a.52.52,0,0,0,.39-.52.51.51,0,0,0-.39-.51.52.52,0,0,0-.64.51A.53.53,0,0,0,280.8,188.78Z" style="fill: rgb(38, 50, 56); transform-origin: 280.909px 188.265px;" id="el171btsy5z13" class="animable"></path><path d="M295,187.5a.78.78,0,1,1-.64.76A.76.76,0,0,1,295,187.5Zm0,1.28a.53.53,0,0,0,.39-.52.52.52,0,1,0-1,0A.53.53,0,0,0,295,188.78Z" style="fill: rgb(38, 50, 56); transform-origin: 295.14px 188.267px;" id="elmwtfuhuyzya" class="animable"></path><path d="M287.92,206.33a.77.77,0,1,1,0,1.53.75.75,0,0,1-.64-.76A.76.76,0,0,1,287.92,206.33Zm0,1.29a.54.54,0,0,0,0-1,.53.53,0,1,0,0,1Z" style="fill: rgb(38, 50, 56); transform-origin: 287.996px 207.095px;" id="elf1ctgruqe1" class="animable"></path><path d="M280.8,206.33a.78.78,0,1,1-.64.77A.78.78,0,0,1,280.8,206.33Zm0,1.29a.54.54,0,0,0,0-1,.53.53,0,1,0,0,1Z" style="fill: rgb(38, 50, 56); transform-origin: 280.907px 207.097px;" id="elvq6lslqh5rs" class="animable"></path><path d="M295,206.33a.77.77,0,1,1,0,1.53.76.76,0,0,1-.64-.76A.77.77,0,0,1,295,206.33Zm0,1.29a.53.53,0,1,0-.64-.52A.54.54,0,0,0,295,207.62Z" style="fill: rgb(38, 50, 56); transform-origin: 295.109px 207.095px;" id="eltwucbr9c7vs" class="animable"></path><path d="M287.92,225.17a.77.77,0,1,1,0,1.53.78.78,0,0,1,0-1.53Zm0,1.28a.54.54,0,0,0,0-1,.52.52,0,0,0-.64.52A.52.52,0,0,0,287.92,226.45Z" style="fill: rgb(38, 50, 56); transform-origin: 288.029px 225.935px;" id="el5hpomlc6blq" class="animable"></path><path d="M280.8,225.17a.77.77,0,1,1,0,1.53.78.78,0,0,1,0-1.53Zm0,1.28a.54.54,0,0,0,0-1,.53.53,0,0,0-.64.52A.52.52,0,0,0,280.8,226.45Z" style="fill: rgb(38, 50, 56); transform-origin: 280.909px 225.935px;" id="el97qg3k7b05" class="animable"></path><path d="M295,225.17a.78.78,0,1,1-.64.77A.77.77,0,0,1,295,225.17Zm0,1.28a.54.54,0,0,0,0-1,.53.53,0,0,0-.64.52A.52.52,0,0,0,295,226.45Z" style="fill: rgb(38, 50, 56); transform-origin: 295.14px 225.937px;" id="elrq6msvk75l9" class="animable"></path><path d="M287.92,244a.77.77,0,1,1,0,1.53.76.76,0,0,1-.64-.77A.75.75,0,0,1,287.92,244Zm0,1.28a.53.53,0,0,0,.39-.52.52.52,0,1,0-1,0A.52.52,0,0,0,287.92,245.29Z" style="fill: rgb(38, 50, 56); transform-origin: 288.029px 244.765px;" id="el39kmdhrki0u" class="animable"></path><path d="M280.8,244a.77.77,0,1,1,0,1.53.78.78,0,0,1-.64-.77A.77.77,0,0,1,280.8,244Zm0,1.28a.52.52,0,0,0,.39-.52.51.51,0,0,0-.39-.51.52.52,0,0,0-.64.51A.53.53,0,0,0,280.8,245.29Z" style="fill: rgb(38, 50, 56); transform-origin: 280.909px 244.765px;" id="el13gb8ix6htr" class="animable"></path><path d="M295,244a.78.78,0,1,1-.64.76A.76.76,0,0,1,295,244Zm0,1.28a.53.53,0,0,0,.39-.52.52.52,0,1,0-1,0A.53.53,0,0,0,295,245.29Z" style="fill: rgb(38, 50, 56); transform-origin: 295.14px 244.767px;" id="eljsxy91i1g9k" class="animable"></path><path d="M292.12,107.89a.38.38,0,1,0,.38-.39A.38.38,0,0,0,292.12,107.89Z" style="fill: rgb(38, 50, 56); transform-origin: 292.5px 107.88px;" id="elxqh3b799jde" class="animable"></path><path d="M290.59,110a.38.38,0,0,0,.38.38.39.39,0,1,0,0-.77A.38.38,0,0,0,290.59,110Z" style="fill: rgb(38, 50, 56); transform-origin: 291.006px 109.995px;" id="el1085mqjryjy" class="animable"></path><path d="M287.53,110a.39.39,0,0,0,.39.38.39.39,0,0,0,0-.77A.39.39,0,0,0,287.53,110Z" style="fill: rgb(38, 50, 56); transform-origin: 287.889px 109.995px;" id="el6ld041nloyn" class="animable"></path><path d="M284.48,110a.38.38,0,1,0,.38-.39A.38.38,0,0,0,284.48,110Z" style="fill: rgb(38, 50, 56); transform-origin: 284.86px 109.99px;" id="elbvpupexqhnr" class="animable"></path><path d="M289.06,107.89a.39.39,0,0,0,.77,0,.39.39,0,1,0-.77,0Z" style="fill: rgb(38, 50, 56); transform-origin: 289.445px 107.828px;" id="elh1icdxuibd" class="animable"></path><path d="M286,107.89a.38.38,0,1,0,.38-.39A.38.38,0,0,0,286,107.89Z" style="fill: rgb(38, 50, 56); transform-origin: 286.38px 107.88px;" id="elk06tncz779" class="animable"></path><path d="M283,107.89a.39.39,0,0,0,.77,0,.39.39,0,1,0-.77,0Z" style="fill: rgb(38, 50, 56); transform-origin: 283.385px 107.828px;" id="el4aysp9ktgc1" class="animable"></path><path d="M290.59,121.75a.39.39,0,0,0,.38.39.4.4,0,0,0,.39-.39.39.39,0,0,0-.39-.38A.38.38,0,0,0,290.59,121.75Z" style="fill: rgb(38, 50, 56); transform-origin: 290.975px 121.755px;" id="el41qk4zgij95" class="animable"></path><path d="M287.53,121.75a.4.4,0,0,0,.39.39.39.39,0,0,0,.38-.39.38.38,0,0,0-.38-.38A.39.39,0,0,0,287.53,121.75Z" style="fill: rgb(38, 50, 56); transform-origin: 287.915px 121.755px;" id="el6y39ek961n4" class="animable"></path><path d="M284.48,121.75a.38.38,0,1,0,.76,0,.38.38,0,0,0-.76,0Z" style="fill: rgb(38, 50, 56); transform-origin: 284.86px 121.75px;" id="ellpkfds882lf" class="animable"></path><g id="elfbchobq66o5"><rect x="298.74" y="120.32" width="3.81" height="8.57" style="fill: rgb(55, 71, 79); transform-origin: 300.645px 124.605px; transform: rotate(180deg);" class="animable"></rect></g><rect x="200.99" y="250" width="22.9" height="25.92" style="fill: rgb(38, 50, 56); transform-origin: 212.44px 262.96px;" id="elabwgda82dz" class="animable"></rect><rect x="202.47" y="275.92" width="19.94" height="3.1" style="fill: rgb(55, 71, 79); transform-origin: 212.44px 277.47px;" id="el3icscf35gw" class="animable"></rect><rect x="204.07" y="279.02" width="16.74" height="2.42" style="fill: rgb(38, 50, 56); transform-origin: 212.44px 280.23px;" id="elvlc4tdw292b" class="animable"></rect><rect x="198.58" y="289.09" width="27.72" height="2.71" style="fill: rgb(38, 50, 56); transform-origin: 212.44px 290.445px;" id="el7axvwolgr94" class="animable"></rect><path d="M224.89,289.09H200a13.95,13.95,0,0,1,24.89,0Z" style="fill: rgb(55, 71, 79); transform-origin: 212.445px 285.266px;" id="elwswdssijith" class="animable"></path><path d="M234.07,265.31V152.9s-4.11,7-5,10.43c-1.44,5.81-3.56,26.35-6.48,33.11-.88,2-5.2,14.82-10.74,20.13-7.32,7-16.3,14.37-20.41,18.56-5.6,5.69-12.82,11-12.82,28Z" style="fill: rgb(0, 0, 0); transform-origin: 206.345px 209.105px;" id="elmeq7o6z5u88" class="animable"></path><g id="elbzvai40wzc9"><path d="M234.07,265.31V152.9s-4.11,7-5,10.43c-1.44,5.81-3.56,26.35-6.48,33.11-.88,2-5.2,14.82-10.74,20.13-7.32,7-16.3,14.37-20.41,18.56-5.6,5.69-12.82,11-12.82,28Z" style="opacity: 0.1; transform-origin: 206.345px 209.105px;" class="animable"></path></g><g id="el62cycwwxbwa"><path d="M234.07,152.9V265.31l-17-.67,14.52-107.25C232.86,155,234.07,152.9,234.07,152.9Z" style="opacity: 0.1; transform-origin: 225.57px 209.105px;" class="animable"></path></g><g id="el5uw34u61p5w"><rect x="276.11" y="250" width="22.9" height="25.92" style="fill: rgb(38, 50, 56); transform-origin: 287.56px 262.96px; transform: rotate(180deg);" class="animable"></rect></g><g id="el6znraqw1d0a"><rect x="277.59" y="275.92" width="19.94" height="3.1" style="fill: rgb(55, 71, 79); transform-origin: 287.56px 277.47px; transform: rotate(180deg);" class="animable"></rect></g><g id="ellnwc3mw0j99"><rect x="279.19" y="279.02" width="16.74" height="2.42" style="fill: rgb(38, 50, 56); transform-origin: 287.56px 280.23px; transform: rotate(180deg);" class="animable"></rect></g><g id="el6mn8xsud0y"><rect x="273.7" y="289.09" width="27.72" height="2.71" style="fill: rgb(38, 50, 56); transform-origin: 287.56px 290.445px; transform: rotate(180deg);" class="animable"></rect></g><path d="M275.11,289.09H300a13.95,13.95,0,0,0-24.89,0Z" style="fill: rgb(55, 71, 79); transform-origin: 287.555px 285.266px;" id="elzhhpsxvjpc8" class="animable"></path><path d="M265.93,265.31V152.9s4.11,7,5,10.43c1.44,5.81,3.56,26.35,6.48,33.11.88,2,5.2,14.82,10.74,20.13,7.32,7,16.3,14.37,20.41,18.56,5.6,5.69,12.82,11,12.82,28Z" style="fill: rgb(0, 0, 0); transform-origin: 293.655px 209.105px;" id="elqfw8as4hb6" class="animable"></path><g id="el4347bfnwv1z"><path d="M265.93,265.31V152.9s4.11,7,5,10.43c1.44,5.81,3.56,26.35,6.48,33.11.88,2,5.2,14.82,10.74,20.13,7.32,7,16.3,14.37,20.41,18.56,5.6,5.69,12.82,11,12.82,28Z" style="opacity: 0.1; transform-origin: 293.655px 209.105px;" class="animable"></path></g><g id="el0l5xv710p2d"><path d="M265.93,152.9V265.31l17-.67L268.38,157.39C267.14,155,265.93,152.9,265.93,152.9Z" style="opacity: 0.1; transform-origin: 274.43px 209.105px;" class="animable"></path></g><g id="elhtoffvhe64"><path d="M222.85,299.94c0,19.39-10.17,39.14-10.17,39.14s-10.17-19.75-10.17-39.14a27.32,27.32,0,0,1,1.34-8.14h17.66A27.32,27.32,0,0,1,222.85,299.94Z" style="fill: rgb(0, 0, 0); opacity: 0.6; transform-origin: 212.68px 315.44px;" class="animable"></path></g><g id="elrlziac0o7s"><path d="M219.37,295.22c0,15.58-6.69,31.46-6.69,31.46S206,310.8,206,295.22a24.37,24.37,0,0,1,.25-3.42h12.88A24.37,24.37,0,0,1,219.37,295.22Z" style="fill: rgb(0, 0, 0); opacity: 0.6; transform-origin: 212.685px 309.24px;" class="animable"></path></g><g id="el4cd5oxbkwm8"><path d="M297.73,299.94c0,19.39-10.17,39.14-10.17,39.14s-10.18-19.75-10.18-39.14a27.33,27.33,0,0,1,1.35-8.14h17.66A27.32,27.32,0,0,1,297.73,299.94Z" style="fill: rgb(0, 0, 0); opacity: 0.6; transform-origin: 287.555px 315.44px;" class="animable"></path></g><g id="eld3erza67hb"><path d="M294.25,295.22c0,15.58-6.69,31.46-6.69,31.46s-6.69-15.88-6.69-31.46a24.36,24.36,0,0,1,.24-3.42H294A24.37,24.37,0,0,1,294.25,295.22Z" style="fill: rgb(0, 0, 0); opacity: 0.6; transform-origin: 287.56px 309.24px;" class="animable"></path></g><path d="M269.62,147.36v87.77H230.38V147.36c0-8,1.32-15.18,6.5-27.13s7.64-17,13.12-17,8,5.06,13.12,17S269.62,139.41,269.62,147.36Z" style="fill: rgb(0, 0, 0); transform-origin: 250px 169.18px;" id="elgxmv616jw2j" class="animable"></path><g id="el0be6323u1rf8"><g style="opacity: 0.1; transform-origin: 250px 192.06px;" class="animable"><path d="M230.38,149q4.91-.14,9.81-.19l9.81-.06,9.81.06q4.9.06,9.81.19c-3.27.1-6.54.16-9.81.2l-9.81,0-9.81,0C236.92,149.14,233.65,149.08,230.38,149Z" id="el5weyrcfrghh" class="animable" style="transform-origin: 250px 148.975px;"></path><path d="M230.38,178.14q4.91-.13,9.81-.19l9.81-.06,9.81.06q4.9.06,9.81.19c-3.27.1-6.54.16-9.81.2l-9.81,0-9.81,0C236.92,178.3,233.65,178.24,230.38,178.14Z" id="el6wizi0glfp" class="animable" style="transform-origin: 250px 178.115px;"></path><path d="M230.38,207.3q4.91-.13,9.81-.19l9.81-.06,9.81.06q4.9.06,9.81.19c-3.27.1-6.54.16-9.81.2l-9.81.05-9.81-.05C236.92,207.46,233.65,207.4,230.38,207.3Z" id="elyn6mtx7r4sm" class="animable" style="transform-origin: 250px 207.3px;"></path><path d="M232.86,151.24a.7.7,0,0,1-.64.7.71.71,0,1,1,.64-.7Zm0,0a.58.58,0,1,0-.64.58A.59.59,0,0,0,232.86,151.24Z" id="el99hhkjpvcj7" class="animable" style="transform-origin: 232.15px 151.233px;"></path><path d="M240,151.24a.7.7,0,0,1-.64.7.71.71,0,1,1,0-1.41A.71.71,0,0,1,240,151.24Zm0,0a.58.58,0,1,0-.64.58A.59.59,0,0,0,240,151.24Z" id="eljse1ytypuro" class="animable" style="transform-origin: 239.283px 151.235px;"></path><path d="M261.31,151.24a.7.7,0,0,1-.64.7.71.71,0,1,1,.64-.7Zm0,0a.58.58,0,1,0-.64.58A.59.59,0,0,0,261.31,151.24Z" id="el5t6aqgw1qrb" class="animable" style="transform-origin: 260.6px 151.233px;"></path><path d="M268.42,151.24a.69.69,0,0,1-.64.7.71.71,0,1,1,.64-.7Zm0,0a.59.59,0,0,0-.64-.58.57.57,0,0,0-.51.58.58.58,0,0,0,.51.58A.59.59,0,0,0,268.42,151.24Z" id="el5d0dtygdjge" class="animable" style="transform-origin: 267.71px 151.233px;"></path><path d="M232.86,180.82a.7.7,0,0,1-.64.7.71.71,0,1,1,.64-.7Zm0,0a.58.58,0,1,0-.64.58A.59.59,0,0,0,232.86,180.82Z" id="el0wcjowmwdfca" class="animable" style="transform-origin: 232.15px 180.813px;"></path><path d="M240,180.82a.7.7,0,0,1-.64.7.71.71,0,1,1,0-1.41A.71.71,0,0,1,240,180.82Zm0,0a.58.58,0,1,0-.64.58A.59.59,0,0,0,240,180.82Z" id="elbui7q61bvmw" class="animable" style="transform-origin: 239.283px 180.815px;"></path><path d="M261.31,180.82a.7.7,0,0,1-.64.7.71.71,0,1,1,.64-.7Zm0,0a.58.58,0,1,0-.64.58A.59.59,0,0,0,261.31,180.82Z" id="elz0ag4vf7cx8" class="animable" style="transform-origin: 260.6px 180.813px;"></path><path d="M268.42,180.82a.69.69,0,0,1-.64.7.71.71,0,1,1,.64-.7Zm0,0a.59.59,0,0,0-.64-.58.57.57,0,0,0-.51.58.58.58,0,0,0,.51.58A.59.59,0,0,0,268.42,180.82Z" id="elvs694s2ufxf" class="animable" style="transform-origin: 267.71px 180.813px;"></path><path d="M232.86,210.4a.7.7,0,0,1-.64.7.71.71,0,1,1,.64-.7Zm0,0a.58.58,0,1,0-.64.58A.59.59,0,0,0,232.86,210.4Z" id="elsvh601oreek" class="animable" style="transform-origin: 232.15px 210.393px;"></path><path d="M240,210.4a.7.7,0,0,1-.64.7.71.71,0,1,1,0-1.41A.71.71,0,0,1,240,210.4Zm0,0a.58.58,0,1,0-.64.58A.59.59,0,0,0,240,210.4Z" id="ellwpotqpvxf" class="animable" style="transform-origin: 239.283px 210.395px;"></path><path d="M261.31,210.4a.7.7,0,0,1-.64.7.71.71,0,1,1,.64-.7Zm0,0a.58.58,0,1,0-.64.58A.59.59,0,0,0,261.31,210.4Z" id="elf9s32oo1ksu" class="animable" style="transform-origin: 260.6px 210.393px;"></path><path d="M268.42,210.4a.69.69,0,0,1-.64.7.71.71,0,1,1,.64-.7Zm0,0a.59.59,0,0,0-.64-.58.57.57,0,0,0-.51.58.58.58,0,0,0,.51.58A.59.59,0,0,0,268.42,210.4Z" id="elw5zuho4s38i" class="animable" style="transform-origin: 267.71px 210.393px;"></path><path d="M250,149c.11,14.4.08,28.79.12,43.19s0,28.78-.12,43.18c-.11-14.4-.08-28.79-.12-43.18S249.89,163.38,250,149Z" id="elmo8ecd6gvhq" class="animable" style="transform-origin: 250.001px 192.185px;"></path></g></g><g id="elstfmyd7yd9"><rect x="246.12" y="143.69" width="7.75" height="3.01" style="opacity: 0.2; transform-origin: 249.995px 145.195px;" class="animable"></rect></g><path d="M243.39,132.37l1.52,3.65a19.55,19.55,0,0,0-3.49,2.06l-1.73-3.31A16.87,16.87,0,0,1,243.39,132.37Z" style="fill: rgb(38, 50, 56); transform-origin: 242.3px 135.225px;" id="elekjsr9vlnrj" class="animable"></path><path d="M256.61,132.37,255.09,136a19.55,19.55,0,0,1,3.49,2.06l1.73-3.31A16.87,16.87,0,0,0,256.61,132.37Z" style="fill: rgb(38, 50, 56); transform-origin: 257.7px 135.215px;" id="elb90ktim8wd9" class="animable"></path><path d="M255,131.67l-1.55,3.71a10.12,10.12,0,0,0-6.92,0L245,131.67a13.69,13.69,0,0,1,10,0Z" style="fill: rgb(38, 50, 56); transform-origin: 250px 133.052px;" id="elopyfzsdkjdg" class="animable"></path><path d="M262.67,119.18H237.33c4.86-11.21,7.36-16,12.67-16S257.81,108,262.67,119.18Z" style="fill: rgb(0, 0, 0); transform-origin: 250px 111.18px;" id="elo3pvu30xbn" class="animable"></path><g id="elpl9mzccll09"><path d="M262.67,119.18H237.33c4.86-11.21,7.36-16,12.67-16S257.81,108,262.67,119.18Z" style="fill: rgb(255, 255, 255); opacity: 0.5; transform-origin: 250px 111.18px;" class="animable"></path></g><rect x="246.95" y="115.72" width="6.1" height="1.99" style="fill: rgb(0, 0, 0); transform-origin: 250px 116.715px;" id="elzkrtpvupo4m" class="animable"></rect><rect x="231.97" y="235.13" width="36.06" height="34.6" style="fill: rgb(219, 219, 219); transform-origin: 250px 252.43px;" id="el2q4bw90ceq2" class="animable"></rect><polygon points="268.03 237.91 231.97 239.64 231.97 235.13 268.03 235.13 268.03 237.91" style="fill: rgb(199, 199, 199); transform-origin: 250px 237.385px;" id="elr5a9d0ohtea" class="animable"></polygon><rect x="234.3" y="269.73" width="7.63" height="4.91" style="fill: rgb(38, 50, 56); transform-origin: 238.115px 272.185px;" id="elr4kcr2fix5" class="animable"></rect><path d="M242.76,279.29h-9.3a4.65,4.65,0,1,1,9.3,0Z" style="fill: rgb(219, 219, 219); transform-origin: 238.11px 276.965px;" id="elwx6ot3sbk3" class="animable"></path><rect x="258.03" y="269.73" width="7.63" height="4.91" style="fill: rgb(38, 50, 56); transform-origin: 261.845px 272.185px;" id="elhebudwqjpbk" class="animable"></rect><path d="M266.49,279.29H257.2a4.65,4.65,0,1,1,9.29,0Z" style="fill: rgb(219, 219, 219); transform-origin: 261.845px 276.857px;" id="eljb9f3pqee79" class="animable"></path><path d="M241.28,235.35c-4.82-.33-8.4,5.24-10.8,17.88-2.17,11.43-1.71,16.5-1.71,16.5h18.57V252.41C247.34,245.39,245.61,235.64,241.28,235.35Z" style="fill: rgb(38, 50, 56); transform-origin: 238.035px 252.533px;" id="ell5whru4b4t" class="animable"></path><path d="M258.72,235.35c4.82-.33,8.4,5.24,10.8,17.88,2.17,11.43,1.71,16.5,1.71,16.5H252.66V252.41C252.66,245.39,254.39,235.64,258.72,235.35Z" style="fill: rgb(38, 50, 56); transform-origin: 261.965px 252.533px;" id="elwewpwcyblpo" class="animable"></path><path d="M253.78,252.43s-1.14,12.56-1.46,16.68c-.43,5.5-1,8.75-2.32,8.75s-1.89-3.25-2.32-8.75c-.33-4.12-1.46-16.68-1.46-16.68l3.78-6.38Z" style="fill: rgb(199, 199, 199); transform-origin: 250px 261.955px;" id="eljxg5pocrmf" class="animable"></path></g><defs>     <filter id="active" height="200%">         <feMorphology in="SourceAlpha" result="DILATED" operator="dilate" radius="2"></feMorphology>                <feFlood flood-color="#32DFEC" flood-opacity="1" result="PINK"></feFlood>        <feComposite in="PINK" in2="DILATED" operator="in" result="OUTLINE"></feComposite>        <feMerge>            <feMergeNode in="OUTLINE"></feMergeNode>            <feMergeNode in="SourceGraphic"></feMergeNode>        </feMerge>    </filter>    <filter id="hover" height="200%">        <feMorphology in="SourceAlpha" result="DILATED" operator="dilate" radius="2"></feMorphology>                <feFlood flood-color="#ff0000" flood-opacity="0.5" result="PINK"></feFlood>        <feComposite in="PINK" in2="DILATED" operator="in" result="OUTLINE"></feComposite>        <feMerge>            <feMergeNode in="OUTLINE"></feMergeNode>            <feMergeNode in="SourceGraphic"></feMergeNode>        </feMerge>            <feColorMatrix type="matrix" values="0   0   0   0   0                0   1   0   0   0                0   0   0   0   0                0   0   0   1   0 "></feColorMatrix>    </filter></defs></svg>